<svg width="64" height="64" viewBox="0 0 64 64" fill="none" xmlns="http://www.w3.org/2000/svg">
<mask id="mask0_406_741" style="mask-type:alpha" maskUnits="userSpaceOnUse" x="0" y="0" width="64" height="64">
<circle cx="32" cy="32" r="32" fill="#D9D9D9"/>
</mask>
<g mask="url(#mask0_406_741)">
<path d="M-16 0H80V64H-16V0Z" fill="#006C35"/>
<path fill-rule="evenodd" clip-rule="evenodd" d="M43.9744 44C43.9733 44.0004 43.9714 44.0028 43.9705 44.0034C43.1977 44.1708 43.2217 44.847 43.7178 45.1451C35.557 45.1451 23.0336 45.0282 20.3478 45.0282C18.8452 45.0282 14.0915 44.8768 14 44.8768C15.0195 46.1353 16.4963 46.3917 18.4288 46.4174L43.6279 46.3795C43.2882 46.8887 43.6589 47.7092 43.9253 47.8582C43.931 47.8614 43.9401 47.8661 43.9457 47.8686C43.956 47.8733 43.967 47.8767 43.9783 47.8788C43.9815 47.8795 43.9875 47.8785 43.9905 47.8788C44.307 47.9418 44.4462 47.7484 44.5527 47.6071C45.0661 47.6452 47.9552 47.6804 48.2196 47.6037C48.2205 47.6034 48.2228 47.6005 48.2236 47.6003C48.4025 47.8225 48.58 48.0323 48.9204 47.9958C49.5161 47.888 49.9852 47.8334 50 46.8129C50 46.8129 49.9392 45.0742 48.5861 45.183C48.2661 45.2239 47.368 45.3001 47.368 45.3001C46.3286 45.1956 45.5662 45.185 44.3979 45.1487C44.5057 45.0332 44.6961 44.5652 44.4629 44.3956C44.4021 44.353 44.3116 44.3292 44.1859 44.3372H44.182C44.1802 44.3372 44.1755 44.3374 44.1738 44.3372C44.1729 44.337 44.1706 44.334 44.1698 44.3338C44.1666 44.3328 44.1608 44.3319 44.1577 44.3303C44.1502 44.3253 44.1434 44.3196 44.1374 44.3133C44.1359 44.3117 44.1306 44.3079 44.1292 44.3063C44.0701 44.2338 44.0379 44.0557 43.9987 44.0107L43.9948 44.0073C43.9942 44.0069 43.9912 44.0041 43.9907 44.0038C43.9881 44.0026 43.9854 44.0014 43.9826 44.0004H43.9745L43.9744 44ZM44.5285 46.4863C44.5299 46.4858 44.5312 46.4868 44.5326 46.4863C45.7231 46.5354 46.8417 46.4957 48.0323 46.5447C48.2211 46.68 48.1267 46.9902 48.0038 47.0467C47.9973 47.0495 47.9905 47.0518 47.9836 47.0537C47.9792 47.0546 47.9727 47.0535 47.9673 47.0537C47.9618 47.0537 47.9564 47.0546 47.9509 47.0537L46.9527 47.0297C46.9526 47.0134 46.9498 46.9971 46.9446 46.9814C46.8529 46.7519 46.1884 46.7674 46.032 46.9471C46.0291 46.9505 46.0267 46.9538 46.0239 46.9573C46.0207 46.9617 46.0179 46.9663 46.0157 46.9712C46.0127 46.9768 46.01 46.9825 46.0076 46.9883C46.0051 46.9951 46.0045 47.0052 46.0035 47.0124C46.0025 47.0215 45.9986 47.0311 45.9995 47.0399C45.478 47.0929 45.0064 47.0252 44.4838 47.009C44.3317 46.8479 44.3484 46.5564 44.5287 46.4863H44.5285Z" fill="white"/>
<path d="M48.2305 27.5884C48.3952 27.6692 48.8282 27.1788 48.8129 26.5628C48.8605 26.2468 48.6904 25.0798 48.2585 24.8819C48.208 24.8659 48.1545 24.8593 48.1017 24.8659C47.876 24.8961 47.6625 25.0881 47.7604 25.4026C47.6985 25.587 48.0667 26.2332 48.1622 26.5762C48.2481 26.8204 48.0515 27.5106 48.2302 27.5831L48.2305 27.5884ZM14.1361 17.6795C14.6648 17.9116 15.6564 17.8141 15.6145 17.0279C15.6145 16.9599 15.5978 16.7248 15.5902 16.6613C15.5365 16.5457 15.4365 16.5019 15.3412 16.5169L15.3422 16.5171C15.2458 16.5331 15.1547 16.6063 15.1212 16.7243C15.1 16.8029 15.1575 16.9329 15.0811 16.9722C15.0373 17.0176 14.8693 16.9882 14.8762 16.7689C14.8762 16.7009 14.821 16.6274 14.7878 16.5837C14.7546 16.5611 14.7319 16.5535 14.6713 16.5535C14.598 16.5554 14.5995 16.576 14.5589 16.6313C14.5408 16.6843 14.518 16.7462 14.518 16.8126C14.5091 16.8896 14.4757 16.9163 14.4135 16.9275C14.3448 16.9275 14.36 16.9334 14.3051 16.8973C14.2733 16.8594 14.2333 16.8518 14.2333 16.7936C14.2333 16.7407 14.2167 16.6395 14.1971 16.6009C14.1675 16.5631 14.1222 16.5478 14.0685 16.5328C13.7798 16.5339 13.7587 16.8389 13.7752 16.9547C13.7542 16.9773 13.7428 17.517 14.1369 17.669L14.1361 17.6795ZM9.89798 17.6493C9.97905 17.8353 9.81766 18.4343 9.9864 18.4897C10.1415 18.5501 10.3552 18.0747 10.4363 17.6345C10.481 17.3933 10.447 16.5681 9.83792 16.3978C9.80614 16.3918 9.77435 16.3818 9.74139 16.3818C9.50843 16.3758 9.25136 16.5087 9.35163 16.7665C9.29339 16.9071 9.80763 17.3819 9.89798 17.6442V17.6493ZM28.5705 17.8708C28.8741 17.1146 28.8756 16.7922 28.8958 16.4714C28.849 16.2273 28.7334 16.1093 28.6027 16.1191C28.472 16.1351 28.3272 16.2695 28.2091 16.541C28.1077 16.7482 27.9841 17.8257 28.0041 17.8257C27.9233 18.147 28.3681 18.2822 28.5705 17.8711V17.8708ZM24.7979 17.6599C24.948 17.8579 25.0958 17.8375 25.3965 17.6977C25.5692 17.5805 25.6276 17.5049 25.6857 17.3084C25.7575 16.9788 25.3092 17.4641 25.2518 17.0967C25.1516 16.7558 25.4378 16.616 25.7097 16.2859C25.7159 16.1309 25.7188 16.0039 25.6094 16.0001C25.5595 15.9988 25.4851 16.0227 25.3804 16.081C25.1454 16.2254 24.6796 16.6736 24.6653 17.1879C24.6509 17.4782 24.592 17.4767 24.7978 17.662L24.7979 17.6599ZM9.38032 22.8669C10.9237 23.0036 10.0711 20.4625 10.6298 20.0012C10.7354 19.7737 10.9312 19.7691 10.9472 20.0542V22.2127C10.9328 22.9141 11.4341 23.123 11.8229 23.2679C12.2276 23.2378 12.496 23.2453 12.6546 23.6119L12.8474 27.3476C12.8474 27.3476 13.7829 27.5948 13.8277 25.2483C13.8722 23.8702 13.5298 22.7137 13.7313 22.4457C13.7382 22.1826 14.1048 22.169 14.3579 22.2974C14.7613 22.5598 14.9403 22.8825 15.5671 22.7525C16.521 22.5106 17.0956 22.0835 17.1097 21.4085C17.0546 20.7667 16.9735 20.1248 16.672 19.4832C16.7136 19.3668 16.4893 19.0637 16.5313 18.9465C16.7027 19.1945 16.9619 19.1732 17.0214 18.9465C16.859 18.4537 16.6062 17.9809 16.1979 17.7765C15.8604 17.5022 15.3664 17.5596 15.1856 18.1318C15.1016 18.7903 15.4445 19.571 15.9649 20.2089C16.0754 20.4575 16.23 20.8725 16.1617 21.2457C15.8846 21.3914 15.6102 21.3301 15.3782 21.105C15.3782 21.105 14.619 20.5812 14.619 20.4647C14.8203 19.2757 14.662 19.1397 14.551 18.8096C14.473 18.3546 14.2388 18.2101 14.0489 17.8989C13.8589 17.7137 13.6013 17.7137 13.4785 17.8989C13.1429 18.4348 13.3003 19.5871 13.5428 20.1019C13.7179 20.5758 13.9865 20.872 13.8601 20.872C13.7559 21.1395 13.5388 21.0775 13.382 20.7683C13.1584 20.1289 13.1128 19.1763 13.1128 18.7468C13.0464 18.2146 12.9709 17.0769 12.5906 16.7883C12.4892 16.6605 12.3693 16.6166 12.2532 16.6288C12.1038 16.6448 11.9632 16.7567 11.8956 16.9062C11.8708 17.4347 11.8677 17.9632 11.9319 18.4502C12.1928 19.3044 12.2754 20.0559 12.402 20.9307C12.4368 22.1026 11.6677 21.4371 11.7029 20.8551C11.8806 20.1007 11.8314 18.9125 11.6749 18.6114C11.5498 18.3106 11.4051 18.2357 11.1004 18.2857C10.8586 18.2697 10.2345 18.8994 10.06 19.937C10.06 19.937 9.91462 20.4699 9.85104 20.9441C9.76571 21.48 9.38022 21.8597 9.11184 20.8684C8.87984 20.1495 8.73713 18.3767 8.34854 18.7916C8.23718 20.1754 8.10513 22.6106 9.38097 22.8605L9.38032 22.8669ZM19.3235 20.5186C19.3241 20.5189 19.3267 20.5184 19.3275 20.5186C19.3283 20.5189 19.3307 20.5226 19.3315 20.5226C19.3322 20.5229 19.3345 20.5226 19.3355 20.5226L19.3395 20.5266C19.4401 20.587 20.6771 20.587 20.8139 20.5306C20.815 20.5299 20.8171 20.5266 20.8179 20.5266C20.8186 20.526 20.8215 20.5268 20.8219 20.5266C20.8222 20.5264 20.8217 20.5226 20.8219 20.5226C21.2469 20.3781 23.2644 18.253 23.2644 18.253C23.1598 18.1706 23.0635 18.1093 22.9591 18.0269C22.8471 17.937 22.8584 17.8501 22.9591 17.7602C23.4587 17.4925 23.3004 16.9025 23.0394 16.6345C22.8231 16.5453 22.6195 16.5151 22.4369 16.5233C22.2691 16.5284 22.1046 16.5702 21.9547 16.6457C21.6043 16.9549 21.5221 17.4508 21.7981 17.7601C22.0667 17.8766 22.3337 18.126 22.1556 18.2636C21.395 19.0112 19.419 20.2607 19.3194 20.4886C19.3185 20.4909 19.3171 20.4929 19.3155 20.4947C19.315 20.4964 19.3155 20.5007 19.3155 20.5027V20.5067C19.3165 20.5088 19.3178 20.5107 19.3194 20.5147L19.3235 20.5187V20.5186ZM22.3169 17.1874C22.3253 17.1857 22.3326 17.1835 22.3411 17.1835C22.4645 17.1675 22.6134 17.2765 22.6867 17.4238C22.7645 17.581 22.7251 17.7315 22.5981 17.761C22.4711 17.7911 22.3066 17.6853 22.2286 17.5281C22.1508 17.371 22.1901 17.2159 22.3171 17.1872L22.3169 17.1874ZM25.1073 21.7659C25.7243 22.001 26.116 20.9186 26.3687 19.7333C26.5415 19.4 26.6736 19.363 26.7623 19.533C26.7397 21.1095 26.885 21.4612 27.3248 21.9396C28.3058 22.6372 29.1173 22.0279 29.1809 21.9698L29.9442 21.266C30.1142 21.1012 30.3388 21.0914 30.5788 21.2358C30.8122 21.4308 30.7824 21.7687 31.282 22.0023C31.7025 22.1573 32.6004 22.0401 32.8086 21.706C33.0888 21.263 33.1568 21.1111 33.2867 20.9433C33.4866 20.6976 33.8291 20.8073 33.8291 20.8905C33.7973 21.0272 33.596 21.1618 33.7326 21.409C33.9705 21.573 34.0258 21.462 34.1666 21.4316C34.6643 21.2124 35.0382 20.2172 35.0382 20.2172C35.0601 19.846 34.8311 19.8748 34.6848 19.9503C34.4937 20.0582 34.4821 20.0947 34.291 20.202C34.0476 20.2398 33.5763 20.3834 33.343 20.05C33.1047 19.6501 33.1032 19.0924 32.9211 18.6876C32.9211 18.6574 32.6027 18.0526 32.8969 18.0141C33.0454 18.0443 33.3648 18.1153 33.4151 17.8697C33.5708 17.6301 33.0791 16.9502 32.7442 16.6071C32.4535 16.3131 32.0521 16.2775 31.6636 16.577C31.3915 16.8075 31.4317 17.066 31.3783 17.3102C31.3095 17.5907 31.3224 17.9383 31.6314 18.3099C31.9031 18.8027 32.3968 19.4371 32.2341 20.3312C32.2341 20.3312 31.9472 20.7562 31.4426 20.7017C31.2325 20.6563 30.8898 20.5755 30.7075 19.3356C30.5697 18.397 30.7416 17.0819 30.3096 16.4662C30.2133 16.2342 30.1283 16.0082 29.9883 16.0256C29.9044 16.0316 29.8014 16.1335 29.6589 16.3741C29.5568 16.6235 29.1158 17.0015 29.4339 17.781C29.6942 18.2747 29.8011 19.0783 29.683 19.9728C29.5027 20.2267 29.4615 20.3152 29.2251 20.5684C28.8931 20.898 28.5331 20.8133 28.257 20.6908C27.9989 20.5307 27.7963 20.4482 27.6785 19.9394C27.6997 19.1279 27.7502 17.7999 27.5901 17.5181C27.3528 17.0818 26.9619 17.2383 26.7947 17.3698C25.9915 18.0463 25.5948 19.1892 25.3524 20.0983C25.1296 20.7598 24.8923 20.5693 24.7257 20.3018C24.32 19.9509 24.2915 17.2115 23.8017 17.662C23.0171 19.7282 24.2518 21.9917 25.1073 21.7716V21.7659ZM21.8748 20.2934C21.4073 20.5263 21.2263 21.2182 21.5175 21.6226C21.7895 21.9779 22.2194 21.8487 22.2766 21.8487C22.7348 21.9017 23.0078 21.0564 23.0078 21.0564C23.0078 21.0564 23.0214 20.8182 22.4775 21.2673C22.2486 21.3126 22.2174 21.2294 22.1602 21.1123C22.1125 20.8924 22.123 20.6693 22.232 20.4501C22.2826 20.3185 22.2322 20.2347 22.1236 20.224C22.0593 20.2181 21.9729 20.24 21.8745 20.2921L21.8748 20.2934ZM52.0962 30.8431C51.9959 30.7373 51.7699 30.7977 51.618 30.7901C51.5462 30.7901 51.3074 30.7523 51.4213 30.5641C51.5155 30.4438 51.5502 30.3721 51.6141 30.2231C51.6852 30.0781 51.6225 29.9805 51.365 29.9011C51.2339 29.8785 51.1431 29.8709 51.0476 29.8709C50.9522 29.875 50.8518 29.8869 50.7063 29.9011C50.5488 29.9313 50.4938 29.9955 50.4652 30.171C50.4765 30.4379 50.6536 30.4242 50.8347 30.53C50.9398 30.6532 51.0081 30.7644 50.8264 30.9663L50.3604 31.3366C50.2793 31.4636 50.2286 31.6602 50.4769 31.7214C50.9351 31.84 51.9954 31.2051 51.9954 31.1915C52.1671 31.0729 52.1101 30.8476 52.0958 30.8476L52.0962 30.8431ZM55.3866 19.6896C55.3518 19.4538 55.2388 18.9123 55.2821 18.8416C55.3516 18.6759 55.7063 18.8576 55.8325 18.6677C56.0174 18.4932 54.9164 17.1945 54.5308 16.6389C54.4537 16.4998 54.4062 16.3849 54.338 16.3909C54.2851 16.3949 54.2201 16.4749 54.121 16.6683C53.8826 17.0288 53.7996 17.6727 53.8961 18.2419C54.4701 21.8203 54.8966 25.2853 54.9848 28.457C54.9357 28.7578 54.9213 28.918 54.7678 29.2973C54.4291 29.6971 54.0555 30.1994 53.7033 30.4413C53.3513 30.6832 52.6024 30.9138 52.3575 31.0929C51.5805 31.5071 51.5754 31.9827 52.2048 32C53.2874 31.8844 54.5684 31.8027 55.4507 30.5746C55.6869 30.2307 55.9649 29.2978 55.9771 28.7271C56.0597 25.3805 55.9309 22.1083 55.3864 19.6896H55.3866ZM8.52283 26.2517L12.5401 24.4747C12.3205 24.1724 12.5266 23.9003 11.7006 23.8784C10.4311 23.9009 8.5719 25.4119 8.52283 26.2515V26.2517ZM9.23846 30.0868C8.90448 30.7119 8.7655 30.2841 8.73638 29.9348C8.68571 29.2726 8.75451 28.6628 8.8328 28.1799C8.8744 27.9321 8.87291 27.8459 8.84123 27.8466C8.80944 27.8477 8.74523 27.9358 8.66043 28.034C7.90523 29.143 7.83803 30.7982 8.25467 31.2922C8.47622 31.5258 8.84123 31.6277 9.11035 31.5552C9.58491 31.3653 9.79334 30.4798 9.6807 30.1557C9.5224 29.9267 9.39686 29.8912 9.23878 30.0878L9.23846 30.0868ZM18.7085 28.4203C19.2586 26.7324 18.6971 25.4591 18.8813 25.3029C18.8829 25.3017 18.8877 25.3009 18.8899 25.2989C18.8914 25.2978 18.896 25.297 18.8982 25.2949C18.9 25.2941 18.9042 25.2909 18.9066 25.2909C18.9145 25.2885 18.9226 25.2872 18.9307 25.2869C19.6096 25.9604 20.5619 25.3723 20.7706 25.1387C20.8602 25.0224 21.0841 24.9467 21.2406 25.0933C21.7701 25.4441 22.698 25.2785 22.8918 24.6603C23.0038 24.0555 23.0983 23.4327 23.1207 22.7869C22.7757 22.8859 22.4977 22.9599 22.3856 23.0681C22.3591 23.0982 22.3395 23.1211 22.3333 23.1573L22.245 23.694C22.2422 23.71 22.2366 23.7242 22.2292 23.7394C22.2134 23.762 22.1907 23.7847 22.165 23.7924C22.043 23.8528 21.8304 23.8226 21.8194 23.6556C21.6556 22.9684 20.9803 22.8787 20.5701 23.9443C20.2941 24.1507 19.7908 24.1907 19.7384 23.8839C19.805 23.1689 19.492 23.0732 18.8667 23.41L18.2642 19.2265C18.5253 19.2205 18.7646 19.3935 19.0034 19.1183C18.7463 18.3775 18.1986 16.8716 17.8906 16.7301C17.8883 16.7292 17.8851 16.7282 17.8822 16.7262C17.8684 16.7103 17.8538 16.6951 17.8385 16.6807C17.8321 16.6768 17.8257 16.6727 17.8188 16.6647C17.8132 16.6608 17.8044 16.6588 17.7992 16.6487C17.7864 16.6428 17.7728 16.6327 17.7591 16.6327C17.7319 16.6268 17.7032 16.6268 17.6747 16.6268H17.6749C17.5984 16.6327 17.5137 16.6722 17.4138 16.6948C17.0858 16.7916 16.7786 17.0524 16.8755 17.5612L17.904 23.5628C17.9637 23.8166 17.7322 24.1523 17.434 24.1183C16.9269 23.8023 16.8019 23.1607 15.9356 23.1891C15.3091 23.1951 14.5946 23.824 14.5054 24.4293C14.4009 24.9101 14.3638 25.4317 14.5054 25.8511C14.9446 26.3386 15.4731 26.2873 15.9356 26.1769C16.3159 26.0324 16.6286 25.687 16.7632 25.7694C16.7636 25.7698 16.7668 25.7691 16.7672 25.7694C16.7675 25.77 16.7668 25.7734 16.7672 25.7734C16.8501 25.9072 16.7595 27.0367 14.9753 27.9097C13.879 28.3632 13.0062 28.4713 12.5368 27.6466C12.2459 27.1311 12.5579 25.1685 11.8419 25.6213C9.7239 30.6527 16.8038 31.3551 17.5946 25.8284C17.646 25.6727 17.8019 25.5162 17.9121 25.5548C17.9596 25.5774 18.0045 25.6341 18.0205 25.7468C17.8564 30.7506 12.5434 31.0935 11.6411 29.5196C11.4174 29.1484 11.35 28.3226 11.3277 27.8276C11.287 27.5283 11.2053 27.3551 11.1108 27.2871C10.8966 27.1389 10.6073 27.5276 10.5444 28.2016C10.4548 28.7444 10.4802 28.8925 10.4802 29.4161C10.7635 33.3682 17.6006 31.6701 18.7116 28.4053L18.7085 28.4203ZM16.0675 25.0005C16.0669 25.0012 16.0678 25.0045 16.0675 25.0045C16.0664 25.0063 16.0646 25.0105 16.0634 25.0105C16.0105 25.0709 15.823 25.0483 15.6899 25.0483C15.5286 25.0422 15.4492 25.0181 15.3524 24.8963C15.3063 24.7617 15.447 24.6294 15.5092 24.5297C15.5098 24.5286 15.5126 24.5276 15.5132 24.5257C15.5216 24.5197 15.5306 24.503 15.5412 24.4955C15.5895 24.45 15.6727 24.4169 15.7621 24.4063C15.7795 24.4043 15.7962 24.4022 15.8144 24.4022C15.9387 24.4035 16.07 24.4553 16.1396 24.6207C16.1909 24.7493 16.1637 24.8937 16.0677 24.9987L16.0675 25.0005ZM38.6746 21.2266C39.2034 21.4586 40.1991 21.3566 40.157 20.5712C40.157 20.5031 40.1366 20.2681 40.129 20.2046C40.0754 20.0882 39.9754 20.0451 39.88 20.0602C39.7846 20.0762 39.6925 20.1516 39.659 20.2718C39.6378 20.3504 39.6998 20.4766 39.6228 20.5161C39.5788 20.5614 39.4069 20.5321 39.4137 20.3156C39.4137 20.2477 39.3593 20.1706 39.3254 20.1266C39.2921 20.1041 39.2695 20.0964 39.2089 20.0964C39.1356 20.0986 39.1371 20.119 39.0965 20.1743C39.0791 20.2273 39.0564 20.2898 39.0564 20.3556C39.0474 20.4326 39.0179 20.4593 38.9561 20.4706C38.8872 20.4706 38.8994 20.4767 38.8436 20.4404C38.8118 20.4027 38.7717 20.3951 38.7717 20.337C38.7717 20.2838 38.7552 20.1834 38.7354 20.1441C38.7067 20.1062 38.6606 20.0987 38.607 20.0836C38.3181 20.0847 38.3011 20.3868 38.3177 20.5018C38.2966 20.5242 38.2814 21.0693 38.6752 21.2197L38.6746 21.2266ZM47.2 23.2519C47.2089 22.7932 47.2573 22.1836 47.2842 21.8042C47.2956 21.6606 47.3318 21.5034 47.4809 21.4671C47.6297 21.4292 47.8877 21.6047 47.8907 21.4511C47.8635 21.1593 47.8004 20.7292 47.6215 20.5255C47.53 20.4001 47.3797 20.3327 47.2238 20.3252C46.9642 20.3092 46.6878 20.4688 46.6171 20.7954C46.6182 20.9882 46.7116 21.0941 46.6934 21.2686C46.6662 21.3684 46.5544 21.4342 46.2876 21.314C46.33 21.2762 46.1148 20.9988 46.1148 20.9988C45.9067 20.8825 45.6289 21.0048 45.448 21.1136C45.3484 21.28 45.2749 21.5664 45.3882 21.8574C45.6869 22.3662 46.7115 23.2337 47.2002 23.2421L47.2 23.2519ZM43.9052 29.582C44.2737 29.5841 44.6995 28.8054 44.8814 28.0346C44.9811 26.9726 44.8149 26.3263 44.785 25.7021C44.7547 25.0778 44.0183 20.0135 43.8691 19.5412C43.6891 18.6483 44.5856 19.4231 44.4877 18.9047C44.1779 18.25 43.4042 17.2955 43.1621 16.7277C43.0711 16.5751 43.0598 16.4345 42.9853 16.4466C42.9407 16.4546 42.8746 16.5146 42.7523 16.6651C42.4498 17.5762 42.3435 18.3205 42.4589 18.8864C43.2357 22.6224 44.0316 26.026 43.9052 29.5825V29.582ZM41.1415 28.8195C40.2913 29.6377 39.0653 30.6461 37.7308 31.1114C37.5873 31.2596 38.0877 31.8931 38.7352 31.8925C39.8179 31.777 40.7693 31.2167 41.6518 29.7415C41.8878 29.3975 42.3025 28.661 42.3147 28.0901C42.3973 24.7436 42.1326 22.1415 41.5877 19.7228C41.5529 19.4869 41.5763 19.2095 41.6194 19.1377C41.6889 19.0605 41.9272 19.1395 42.0533 18.9487C42.2382 18.7748 41.5592 17.3309 41.1735 16.7753C41.0964 16.6361 41.0489 16.5251 40.9806 16.5311C40.9277 16.5351 40.8628 16.6113 40.7636 16.8055C40.5251 17.1661 40.3632 17.7923 40.3818 18.3791C40.8982 21.6745 41.0567 24.5582 41.3942 27.8536C41.4215 28.1725 41.3707 28.6352 41.1412 28.8199L41.1415 28.8195ZM43.3644 27.4691C43.3772 27.4238 43.3751 27.4238 43.3644 27.4691ZM39.0316 18.1787C39.2203 18.6655 38.8876 19.1297 39.0839 19.1969C39.2645 19.2724 39.5159 18.6934 39.6102 18.1601C39.7191 17.7285 39.3848 16.8434 38.9111 16.6608C38.8748 16.6528 38.8363 16.6528 38.7987 16.6448C38.5277 16.6368 38.228 16.7952 38.3447 17.1074C38.2766 17.2782 38.9268 17.858 39.0316 18.1737V18.1787ZM48.5789 23.2323C48.5642 23.2302 48.5493 23.2316 48.5352 23.2364L46.0244 24.8987C45.7814 25.0982 45.903 25.7978 46.0244 25.717C46.2001 25.7774 48.6667 24.2386 48.6196 24.0582C48.7271 24.0642 48.7788 23.2657 48.5796 23.2326L48.5789 23.2323ZM46.8541 18.7372C47.5991 19.582 48.3277 20.4411 49.0396 21.3139C49.1946 23.1523 49.2359 24.8373 49.3931 26.6786C49.3713 27.4662 49.108 28.5121 48.8589 28.6114C48.8589 28.6114 48.4785 28.8124 48.2243 28.5888C48.0394 28.5207 47.3002 27.4521 47.3002 27.4521C46.9219 27.1323 46.6696 27.2238 46.4004 27.4521C45.658 28.1127 45.3221 29.3505 44.8177 30.203C44.6876 30.3934 44.3211 30.5545 43.9139 30.187C43.0757 29.1307 43.3134 27.7146 43.3656 27.4677L43.355 27.5132C42.4334 28.4703 42.8417 30.0562 43.0498 30.3974C43.3535 30.9574 43.5993 31.3162 44.1907 31.5932C44.7293 31.9583 45.1483 31.7308 45.3797 31.4752C45.9216 30.9573 45.9289 29.6341 46.1832 29.3723C46.3617 28.8908 46.8088 28.9739 47.0269 29.1871C47.2381 29.4668 47.4877 29.6497 47.7981 29.8016C48.3037 30.2121 48.9069 30.2869 49.5016 29.9129C49.9078 29.7027 50.1715 29.429 50.4094 28.8909C50.6648 28.262 50.5385 24.9645 50.4812 23.13L51.6141 24.6443C51.7784 26.2535 51.8531 27.8403 51.799 29.3611C51.7604 29.6634 52.9438 28.4582 52.936 27.8875V26.5138C53.5101 27.3586 54.0658 28.2175 54.591 29.087C54.9164 28.9291 54.805 27.2295 54.5994 26.9953C54.0493 26.1447 53.345 25.2257 52.7996 24.5147C52.6918 23.6161 52.5449 22.5584 52.4782 22.2338C52.3744 21.7282 52.27 20.9682 52.1126 20.3679C52.0695 20.1335 51.939 19.3847 51.9802 19.3129C52.0444 19.1458 52.2866 19.3188 52.406 19.1238C52.5847 18.9438 51.7868 17.0389 51.3815 16.495C51.2359 16.2509 50.9725 16.3357 50.6464 16.7324C50.3438 16.9932 50.4535 17.5883 50.5701 18.1541C50.87 19.5964 51.1376 21.0654 51.3494 22.5305L50.0075 20.7163L49.9478 20.4305C49.9478 20.4003 49.8836 19.2508 49.8273 18.9756C49.8167 18.8639 49.7889 18.832 49.9158 18.8465C50.0504 18.9506 50.0686 18.9561 50.1528 18.9908C50.2889 19.0134 50.4076 18.8018 50.3256 18.6061L49.0642 16.4587C49.0136 16.4133 48.9569 16.3643 48.8914 16.3552C48.8264 16.3471 48.7546 16.3776 48.6744 16.4843C48.521 16.6083 48.3561 16.8327 48.361 17.1207C48.3981 17.6287 48.4965 18.149 48.5338 18.6573L48.5739 18.8607C48.5298 18.8076 48.4828 18.7568 48.4332 18.7087C47.3586 17.6681 48.926 18.5387 48.2283 17.7348C47.6375 17.137 47.4646 16.9467 46.9589 16.5871C46.7053 16.4359 46.5521 16.1472 46.4688 16.6325C46.437 17.0641 46.4014 17.5644 46.4332 17.9285C46.4314 18.1302 46.6587 18.5113 46.855 18.7356L46.8541 18.7372ZM53.0856 19.5718C53.1715 19.8161 52.9548 20.6027 53.1332 20.6752C53.2978 20.7559 53.5293 20.1316 53.6153 19.5533C53.6629 19.2373 53.4085 18.1259 52.9764 17.928C52.9425 17.922 52.9077 17.912 52.8721 17.912C52.625 17.906 52.3557 18.0768 52.4622 18.4155C52.4003 18.5999 52.9893 19.2276 53.085 19.5706L53.0856 19.5718ZM34.3552 30.9615C34.3552 30.9841 34.5621 31.1438 34.8051 31.0069C35.3179 30.8263 35.6375 30.6509 36.3557 30.5073C36.5443 30.5033 36.5333 30.0386 36.2352 30.0227C35.8462 30.0453 35.4871 30.0606 35.0981 30.341C34.8588 30.3863 34.8178 30.2578 34.7646 30.1376C34.7042 29.839 34.9015 29.6282 34.8611 29.4044C34.8716 29.4124 34.7403 29.3054 34.5718 29.2971C34.5106 29.2949 34.4496 29.3051 34.3952 29.3348C34.3845 29.3348 33.8544 29.6644 33.6841 29.8934C33.5801 29.9691 33.592 30.0294 33.6244 30.1565C33.7054 30.3281 33.8481 30.2745 34.0101 30.1942C34.225 30.1641 34.329 30.2971 34.3113 30.5351C34.2121 30.8315 34.3552 30.9426 34.3552 30.9615ZM36.7799 26.2434L36.7838 26.2394C36.7843 26.239 36.7875 26.2354 36.7879 26.2354C36.7882 26.235 36.7911 26.2334 36.7918 26.2314V26.2234C36.7923 26.2107 36.791 26.1979 36.7879 26.1856L36.5548 26.0594L31.963 26.0368C31.9063 26.0142 31.8641 25.9914 31.8386 25.9838C31.8357 25.9812 31.8328 25.9785 31.83 25.9758L31.8261 25.9718L31.8221 25.9678L31.8181 25.9618L31.8141 25.9578V25.9538L31.8101 25.9498V25.9338V25.9138L31.8141 25.9098L31.8181 25.9038C31.8393 25.8736 31.8948 25.8508 31.9627 25.8259C33.0593 25.6883 35.0071 25.3943 35.1365 23.6676C35.1154 22.7692 34.719 22.1794 33.5217 22.0161C32.6418 22.0765 32.0145 22.8633 32.1155 23.7268C32.0739 23.9588 32.2009 24.4162 31.9427 24.4668C30.255 24.6091 28.4131 25.5824 28.3512 26.281H28.3472L28.3431 26.2849L28.3347 26.289H28.3262C28.3223 26.2902 28.3179 26.2909 28.3143 26.2929H28.2902C28.2849 26.2918 28.2795 26.2909 28.2744 26.289C28.1646 26.2588 28.0233 26.094 28.0455 25.8596C27.9813 24.6539 27.5554 23.2894 26.8885 22.2386C26.6505 22.0194 26.5457 21.931 26.4788 21.9204C26.4765 21.9202 26.4729 21.9204 26.4702 21.9204H26.4454C26.4412 21.9216 26.4373 21.9237 26.434 21.9264C26.4306 21.9292 26.4278 21.9326 26.4258 21.9364C26.4215 21.9385 26.4174 21.9404 26.4138 21.9424C26.3624 21.9802 26.3012 22.0604 26.1648 22.1495C25.9347 22.3906 25.8935 22.5585 25.9076 23.0418C25.9204 23.0871 26.3443 24.1772 26.703 24.941C26.9449 25.7339 27.1686 26.642 27.0043 27.4994C26.4379 28.6331 25.2994 29.6498 24.2004 30.2021C23.6404 30.3669 23.157 30.3109 23.0274 30.1981L23.0235 30.1941C22.7021 29.9945 22.6948 29.6416 22.7145 29.5795V29.5756L22.7185 29.5715C23.6459 28.9759 24.7051 28.4955 25.5345 26.8874C25.7795 26.2727 25.8542 25.9044 25.6108 24.9547C25.516 24.601 25.3987 24.3099 25.1368 24.0587L25.1408 24.0547C25.2986 23.9867 25.7082 24.2634 25.7715 24.0925C25.6745 23.6389 25.3414 23.0304 24.964 22.7189C24.6337 22.4422 24.2741 22.4105 23.9717 22.6659C23.6311 22.8405 23.5586 23.4681 23.7226 24.0173C23.9047 24.4307 24.3968 24.5026 24.747 25.3353V25.3393C24.7543 25.3847 24.8673 25.9614 24.6912 26.1908C24.5479 26.602 22.7093 27.9383 22.578 28.0197C22.5765 28.0212 22.5673 28.0257 22.5657 28.0277L22.5618 28.0318C22.5604 28.0329 22.5591 28.0337 22.5577 28.0357C22.5564 28.037 22.5552 28.0378 22.5538 28.0398H22.5452C22.544 28.0385 22.5426 28.0377 22.5413 28.0357V28.0318C22.5396 28.0293 22.5382 28.0266 22.5373 28.0238C22.5317 27.9859 22.5416 27.9057 22.5373 27.7682C22.5252 27.5181 22.6376 26.9509 22.6296 26.8537V26.8497L22.6257 26.8457V26.8417H22.6216C22.0136 27.203 21.8129 28.3129 21.7017 28.6412C20.1623 29.6215 18.413 30.3508 17.4073 31.3439C16.8829 32.0983 21.0201 30.4773 21.501 30.2813C21.5052 30.2833 21.5094 30.2893 21.513 30.2973C21.6043 30.3894 21.6122 30.7131 21.8866 31.0041C22.3164 31.5407 23.2307 31.8715 24.1202 31.6662C25.6119 31.1696 26.4712 30.2324 27.3462 29.1931C27.4712 29.0253 27.6673 28.8937 27.8483 29.023C28.4494 30.2636 30.1829 31.1461 32.424 31.2371C32.9425 30.6558 32.6946 30.3703 32.4837 30.2485C32.4195 30.2031 31.3691 29.8313 31.2062 29.4562C31.1035 29.107 31.3529 28.797 31.853 28.5639C33.2919 28.4037 34.7063 28.2253 36.0753 27.8201C36.0888 27.3961 36.3601 26.7625 36.5413 26.4871C36.6672 26.296 36.748 26.277 36.7783 26.2498L36.7799 26.2434ZM32.9927 23.5861C32.9959 23.5701 33.001 23.5635 33.0085 23.5483C33.011 23.5443 33.0135 23.5423 33.0169 23.5323L33.0209 23.5283C33.0268 23.5203 33.0337 23.5123 33.0405 23.5057C33.0692 23.4831 33.1108 23.4679 33.1571 23.4603C33.257 23.4523 33.3882 23.4829 33.5144 23.5495C33.6973 23.6471 33.8102 23.7945 33.7957 23.9018C33.7952 23.9038 33.7963 23.9077 33.7957 23.9178C33.795 23.9198 33.7886 23.9237 33.7873 23.9338L33.7833 23.9498C33.7826 23.9515 33.7801 23.9557 33.7793 23.9557C33.778 23.9578 33.7767 23.9598 33.7753 23.9637C33.7685 23.9717 33.7601 23.9863 33.7511 23.9939C33.6633 24.0697 33.4603 24.0544 33.269 23.9562C33.0878 23.8593 32.9758 23.7113 32.9879 23.6047C32.9883 23.6026 32.9913 23.5986 32.9918 23.5887L32.9927 23.5861ZM31.157 27.8246C30.6642 27.9804 30.191 28.102 30.1889 28.7577C30.2532 29.0827 30.2395 29.2527 30.1849 29.3313C30.1801 29.3374 30.1751 29.3473 30.1691 29.3539L30.1651 29.358L30.1611 29.3619C30.1598 29.3632 30.1585 29.3641 30.1571 29.366L30.1531 29.3699C30.1502 29.3711 30.1475 29.3721 30.1446 29.374C30.1371 29.3799 30.1289 29.3799 30.1205 29.39C30.1137 29.392 30.104 29.392 30.0964 29.3939C29.9793 29.4099 29.8092 29.307 29.6825 29.2458C29.3787 29.0447 28.5262 28.5579 28.405 27.513C28.3876 27.2772 28.5792 27.0738 28.8871 27.0542C28.9022 27.0531 28.9149 27.0542 28.9308 27.0542H28.9393C29.4507 27.182 30.2049 27.1955 30.8597 27.2575C31.3928 27.2877 31.6564 27.6733 31.157 27.835V27.8246ZM20.3829 26.3808C20.3707 26.569 20.9465 26.798 20.9814 27.2323C21.0637 27.4115 20.8582 27.9859 21.0298 28.0394C21.187 28.0997 21.4053 27.6426 21.4877 27.2175C21.5331 26.9846 21.2902 26.1707 20.8771 26.0254C20.8129 26.0094 20.7463 26.0028 20.6804 26.0094C20.4809 26.0254 20.3028 26.1205 20.383 26.3797L20.3829 26.3808ZM29.6371 23.7293C30.1658 23.9614 31.4261 23.8253 31.1194 23.0747C31.1194 23.0066 31.099 22.7715 31.0915 22.7081C31.0377 22.5924 30.9379 22.5486 30.8424 22.5636C30.7469 22.5796 30.6549 22.6528 30.6214 22.7708C30.6003 22.8494 30.6622 22.9794 30.5859 23.0194C30.5421 23.0649 30.3701 23.0354 30.3769 22.8191C30.3769 22.7511 30.3218 22.674 30.2886 22.6302C30.2553 22.6076 30.2372 22.5999 30.1762 22.5999C30.1028 22.602 30.1013 22.6225 30.0597 22.6778C30.0422 22.7308 30.0196 22.7934 30.0196 22.8591C30.0106 22.9361 29.9811 22.9628 29.9192 22.974C29.8504 22.974 29.8656 22.982 29.8106 22.9438C29.7789 22.9059 29.7344 22.8983 29.7344 22.8401C29.7344 22.7871 29.7216 22.6867 29.7027 22.6481C29.6739 22.6103 29.623 22.6028 29.5701 22.5877C29.2813 22.5888 29.2643 22.8909 29.2809 23.0058C29.2597 23.0284 29.2446 23.5734 29.6382 23.7238L29.6371 23.7293ZM34.1144 18.3629C35.0008 19.4611 35.8538 20.5646 36.6776 21.7062C36.806 22.5539 36.9019 23.383 36.9628 24.2091C37.0963 26.0197 37.1367 28.2739 37.015 30.1809C37.3831 30.1969 37.9729 29.6329 38.18 28.8111C38.3147 27.674 38.1323 25.3538 38.1203 24.6829C38.1118 24.4047 38.0931 24.0721 38.0718 23.7239C39.0736 25.2318 40.0079 26.7834 40.8718 28.3742C41.2046 28.229 41.1308 26.5025 40.9362 26.2601C40.2058 24.8115 39.197 23.3815 38.8754 22.8315C38.7591 22.6341 38.3638 22.0786 37.8951 21.4395C37.8088 20.5275 37.7152 19.755 37.654 19.5216C37.5033 18.5574 38.0839 19.6297 38.0036 19.0695C37.815 18.1068 37.2385 17.4525 36.5573 16.5706C36.3378 16.2841 36.3431 16.2251 36.0029 16.6385C35.8003 17.0626 35.803 17.4148 35.8622 17.7456C35.75 17.5947 35.6307 17.4491 35.5048 17.3093L34.3921 16.4395C34.238 16.3388 33.945 16.1824 33.7211 16.2021C33.5867 16.2181 33.4798 16.2861 33.44 16.4688C33.3862 16.899 33.4142 17.1326 33.4921 17.4907C33.5518 17.7296 33.9291 18.1287 34.1147 18.361L34.1144 18.3629ZM35.9913 18.3025C36.0124 18.3955 36.0366 18.4885 36.0518 18.5837C36.1024 18.7885 36.146 18.9919 36.1924 19.1945C35.9975 18.9466 35.8361 18.747 35.7667 18.6759C35.3253 18.1921 35.7764 18.3591 35.9915 18.3026L35.9913 18.3025Z" fill="white"/>
</g>
</svg>
