<svg width="64" height="64" viewBox="0 0 64 64" fill="none" xmlns="http://www.w3.org/2000/svg">
<mask id="mask0_406_31" style="mask-type:alpha" maskUnits="userSpaceOnUse" x="0" y="0" width="64" height="64">
<circle cx="32" cy="32" r="32" fill="#D9D9D9"/>
</mask>
<g mask="url(#mask0_406_31)">
<path d="M96 0H-32V64H96V0Z" fill="#3F9C35"/>
<path d="M96 0H-32V42.6667H96V0Z" fill="#ED2939"/>
<path d="M96 0H-32V21.3333H96V0Z" fill="#00B9E4"/>
<path d="M29.8666 41.5999C35.1685 41.5999 39.4666 37.3018 39.4666 31.9999C39.4666 26.698 35.1685 22.3999 29.8666 22.3999C24.5647 22.3999 20.2666 26.698 20.2666 31.9999C20.2666 37.3018 24.5647 41.5999 29.8666 41.5999Z" fill="white"/>
<path d="M32 40C36.4183 40 40 36.4183 40 32C40 27.5817 36.4183 24 32 24C27.5817 24 24 27.5817 24 32C24 36.4183 27.5817 40 32 40Z" fill="#ED2939"/>
<path d="M40.5335 26.6667L41.554 29.5364L44.3047 28.2289L42.9972 30.9796L45.8669 32.0001L42.9972 33.0206L44.3047 35.7713L41.554 34.4638L40.5335 37.3334L39.513 34.4638L36.7623 35.7713L38.0699 33.0206L35.2002 32.0001L38.0699 30.9796L36.7623 28.2289L39.513 29.5364L40.5335 26.6667Z" fill="white"/>
</g>
</svg>
