<svg width="64" height="64" viewBox="0 0 64 64" fill="none" xmlns="http://www.w3.org/2000/svg">
<mask id="mask0_406_835" style="mask-type:alpha" maskUnits="userSpaceOnUse" x="0" y="0" width="64" height="64">
<circle cx="32" cy="32" r="32" fill="#D9D9D9"/>
</mask>
<g mask="url(#mask0_406_835)">
<path d="M88 0H-24V64H88V0Z" fill="#DA0000"/>
<path d="M88 0H-24V42.6667H88V0Z" fill="white"/>
<path d="M88 0H-24V21.3333H88V0Z" fill="#239F40"/>
<path d="M-2.5957 18.0978H3.87541M-2.34681 20.3378V19.0934H-0.355703V20.0889H1.63541V19.0934H0.390964M-1.60015 20.0889H-1.10237M3.87541 20.0889H2.63096V19.0934H4.62207M4.62207 17.8489V20.0889H6.61319V17.8489M5.61763 17.8489V20.0889" stroke="white" stroke-width="0.497778"/>
<path d="M-2.5957 21.3333H1.8843M2.38207 21.3333H6.86207" stroke="white" stroke-width="0.995556"/>
<path d="M-2.5957 42.6667H1.8843M2.38207 42.6667H6.86207" stroke="white" stroke-width="0.995556"/>
<path d="M-2.5957 43.9111H3.87541M-2.34681 46.1511V44.9067H-0.355703V45.9022H1.63541V44.9067H0.390964M-1.60015 45.9022H-1.10237M3.87541 45.9022H2.63096V44.9067H4.62207M4.62207 43.6622V45.9022H6.61319V43.6622M5.61763 43.6622V45.9022" stroke="white" stroke-width="0.497778"/>
<path d="M7.35986 18.0978H13.831M7.60875 20.3378V19.0934H9.59986V20.0889H11.591V19.0934H10.3465M8.35542 20.0889H8.8532M13.831 20.0889H12.5865V19.0934H14.5776M14.5776 17.8489V20.0889H16.5688V17.8489M15.5732 17.8489V20.0889" stroke="white" stroke-width="0.497778"/>
<path d="M7.35986 21.3333H11.8399M12.3376 21.3333H16.8176" stroke="white" stroke-width="0.995556"/>
<path d="M7.35986 42.6667H11.8399M12.3376 42.6667H16.8176" stroke="white" stroke-width="0.995556"/>
<path d="M7.35986 43.9111H13.831M7.60875 46.1511V44.9067H9.59986V45.9022H11.591V44.9067H10.3465M8.35542 45.9022H8.8532M13.831 45.9022H12.5865V44.9067H14.5776M14.5776 43.6622V45.9022H16.5688V43.6622M15.5732 43.6622V45.9022" stroke="white" stroke-width="0.497778"/>
<path d="M17.3154 18.0978H23.7865M17.5643 20.3378V19.0934H19.5554V20.0889H21.5465V19.0934H20.3021M18.311 20.0889H18.8088M23.7865 20.0889H22.5421V19.0934H24.5332M24.5332 17.8489V20.0889H26.5243V17.8489M25.5288 17.8489V20.0889" stroke="white" stroke-width="0.497778"/>
<path d="M17.3154 21.3333H21.7954M22.2932 21.3333H26.7732" stroke="white" stroke-width="0.995556"/>
<path d="M17.3154 42.6667H21.7954M22.2932 42.6667H26.7732" stroke="white" stroke-width="0.995556"/>
<path d="M17.3154 43.9111H23.7865M17.5643 46.1511V44.9067H19.5554V45.9022H21.5465V44.9067H20.3021M18.311 45.9022H18.8088M23.7865 45.9022H22.5421V44.9067H24.5332M24.5332 43.6622V45.9022H26.5243V43.6622M25.5288 43.6622V45.9022" stroke="white" stroke-width="0.497778"/>
<path d="M27.271 18.0978H33.7421M27.5199 20.3378V19.0934H29.511V20.0889H31.5021V19.0934H30.2577M28.2666 20.0889H28.7643M33.7421 20.0889H32.4977V19.0934H34.4888M34.4888 17.8489V20.0889H36.4799V17.8489M35.4843 17.8489V20.0889" stroke="white" stroke-width="0.497778"/>
<path d="M27.271 21.3333H31.751M32.2488 21.3333H36.7288" stroke="white" stroke-width="0.995556"/>
<path d="M27.271 42.6667H31.751M32.2488 42.6667H36.7288" stroke="white" stroke-width="0.995556"/>
<path d="M27.271 43.9111H33.7421M27.5199 46.1511V44.9067H29.511V45.9022H31.5021V44.9067H30.2577M28.2666 45.9022H28.7643M33.7421 45.9022H32.4977V44.9067H34.4888M34.4888 43.6622V45.9022H36.4799V43.6622M35.4843 43.6622V45.9022" stroke="white" stroke-width="0.497778"/>
<path d="M37.2266 18.0978H43.6977M37.4755 20.3378V19.0934H39.4666V20.0889H41.4577V19.0934H40.2132M38.2221 20.0889H38.7199M43.6977 20.0889H42.4532V19.0934H44.4443M44.4443 17.8489V20.0889H46.4355V17.8489M45.4399 17.8489V20.0889" stroke="white" stroke-width="0.497778"/>
<path d="M37.2266 21.3333H41.7066M42.2043 21.3333H46.6843" stroke="white" stroke-width="0.995556"/>
<path d="M37.2266 42.6667H41.7066M42.2043 42.6667H46.6843" stroke="white" stroke-width="0.995556"/>
<path d="M37.2266 43.9111H43.6977M37.4755 46.1511V44.9067H39.4666V45.9022H41.4577V44.9067H40.2132M38.2221 45.9022H38.7199M43.6977 45.9022H42.4532V44.9067H44.4443M44.4443 43.6622V45.9022H46.4355V43.6622M45.4399 43.6622V45.9022" stroke="white" stroke-width="0.497778"/>
<path d="M47.1821 18.0978H53.6532M47.431 20.3378V19.0934H49.4221V20.0889H51.4132V19.0934H50.1688M48.1777 20.0889H48.6755M53.6532 20.0889H52.4088V19.0934H54.3999M54.3999 17.8489V20.0889H56.391V17.8489M55.3955 17.8489V20.0889" stroke="white" stroke-width="0.497778"/>
<path d="M47.1821 21.3333H51.6621M52.1599 21.3333H56.6399" stroke="white" stroke-width="0.995556"/>
<path d="M47.1821 42.6667H51.6621M52.1599 42.6667H56.6399" stroke="white" stroke-width="0.995556"/>
<path d="M47.1821 43.9111H53.6532M47.431 46.1511V44.9067H49.4221V45.9022H51.4132V44.9067H50.1688M48.1777 45.9022H48.6755M53.6532 45.9022H52.4088V44.9067H54.3999M54.3999 43.6622V45.9022H56.391V43.6622M55.3955 43.6622V45.9022" stroke="white" stroke-width="0.497778"/>
<path d="M57.1377 18.0978H63.6088M57.3866 20.3378V19.0934H59.3777V20.0889H61.3688V19.0934H60.1244M58.1333 20.0889H58.631M63.6088 20.0889H62.3644V19.0934H64.3555M64.3555 17.8489V20.0889H66.3466V17.8489M65.351 17.8489V20.0889" stroke="white" stroke-width="0.497778"/>
<path d="M57.1377 21.3333H61.6177M62.1155 21.3333H66.5955" stroke="white" stroke-width="0.995556"/>
<path d="M57.1377 42.6667H61.6177M62.1155 42.6667H66.5955" stroke="white" stroke-width="0.995556"/>
<path d="M57.1377 43.9111H63.6088M57.3866 46.1511V44.9067H59.3777V45.9022H61.3688V44.9067H60.1244M58.1333 45.9022H58.631M63.6088 45.9022H62.3644V44.9067H64.3555M64.3555 43.6622V45.9022H66.3466V43.6622M65.351 43.6622V45.9022" stroke="white" stroke-width="0.497778"/>
<path d="M27.6147 38.691C29.218 39.212 30.9522 39.1617 32.5226 38.5487C34.0929 37.9357 35.4026 36.7979 36.229 35.3286C37.0554 33.8592 37.3475 32.1491 37.0557 30.4888C36.7639 28.8285 35.9062 27.3204 34.6283 26.2209C35.4598 27.4513 35.9324 28.8888 35.9932 30.3726C36.0541 31.8563 35.7007 33.3277 34.9728 34.622C34.2448 35.9163 33.1709 36.9825 31.8714 37.7011C30.5719 38.4198 29.098 38.7625 27.6147 38.691Z" fill="#DA0000"/>
<path d="M36.9466 37.2913C38.0003 36.6823 38.8482 35.7725 39.3816 34.6786C39.915 33.5847 40.1097 32.3564 39.9407 31.1512C39.7716 29.9459 39.2466 28.8186 38.4328 27.9136C37.6191 27.0086 36.5536 26.3672 35.373 26.0716C36.2143 26.704 36.9224 27.4963 37.457 28.4029C37.9915 29.3095 38.3419 30.3126 38.4881 31.3549C38.6343 32.3971 38.5733 33.458 38.3088 34.4767C38.0443 35.4953 37.5814 36.4518 36.9466 37.2913Z" fill="#DA0000"/>
<path d="M32.0001 40L31.6001 32L32.0001 25.7018C32.2431 26.0413 32.5679 26.3139 32.9444 26.4944V31.1967L32.6226 39.1432L32.0001 40Z" fill="#DA0000"/>
<path d="M31.8398 25.2L31.9998 25.3502C32.1626 25.5816 32.4047 25.7452 32.6801 25.8099C32.9555 25.8746 33.2451 25.8359 33.4938 25.7012C33.7426 25.5665 33.9333 25.3452 34.0296 25.0792C34.1259 24.8132 34.1213 24.5211 34.0164 24.2583C33.9751 24.4771 33.8679 24.6781 33.709 24.8342C33.5502 24.9903 33.3474 25.0941 33.1279 25.1316C32.9084 25.1691 32.6827 25.1385 32.481 25.044C32.2794 24.9495 32.1115 24.7956 31.9998 24.6029" fill="#DA0000"/>
<path d="M36.3853 38.691C34.782 39.212 33.0478 39.1617 31.4774 38.5487C29.9071 37.9357 28.5974 36.7979 27.771 35.3286C26.9446 33.8592 26.6525 32.1491 26.9443 30.4888C27.2361 28.8285 28.0938 27.3204 29.3717 26.2209C28.5402 27.4513 28.0676 28.8888 28.0068 30.3726C27.9459 31.8563 28.2993 33.3277 29.0272 34.622C29.7552 35.9163 30.8291 36.9825 32.1286 37.7011C33.4281 38.4198 34.902 38.7625 36.3853 38.691Z" fill="#DA0000"/>
<path d="M27.0534 37.2913C25.9997 36.6823 25.1518 35.7725 24.6184 34.6786C24.085 33.5847 23.8903 32.3564 24.0593 31.1512C24.2284 29.9459 24.7534 28.8186 25.5672 27.9136C26.3809 27.0086 27.4464 26.3672 28.627 26.0716C27.7857 26.704 27.0776 27.4963 26.543 28.4029C26.0085 29.3095 25.6581 30.3126 25.5119 31.3549C25.3657 32.3971 25.4267 33.458 25.6912 34.4767C25.9557 35.4953 26.4186 36.4518 27.0534 37.2913Z" fill="#DA0000"/>
<path d="M31.9999 40L32.3999 32L31.9999 25.7018C31.7569 26.0413 31.4321 26.3139 31.0556 26.4944V31.1967L31.3774 39.1432L31.9999 40Z" fill="#DA0000"/>
<path d="M32.1602 25.2L32.0002 25.3502C31.8374 25.5816 31.5953 25.7452 31.3199 25.8099C31.0445 25.8746 30.7549 25.8359 30.5062 25.7012C30.2574 25.5665 30.0667 25.3452 29.9704 25.0792C29.8741 24.8132 29.8787 24.5211 29.9836 24.2583C30.0249 24.4771 30.1321 24.6781 30.291 24.8342C30.4498 24.9903 30.6526 25.0941 30.8721 25.1316C31.0916 25.1691 31.3173 25.1385 31.519 25.044C31.7206 24.9495 31.8885 24.7956 32.0002 24.6029" fill="#DA0000"/>
</g>
</svg>
