<svg width="64" height="64" viewBox="0 0 64 64" fill="none" xmlns="http://www.w3.org/2000/svg">
<mask id="mask0_406_944" style="mask-type:alpha" maskUnits="userSpaceOnUse" x="0" y="0" width="64" height="64">
<circle cx="32" cy="32" r="32" fill="#D9D9D9"/>
</mask>
<g mask="url(#mask0_406_944)">
<path d="M80 0H-16V64H80V0Z" fill="#FF9933"/>
<path d="M80 21.3334H-16V64H80V21.3334Z" fill="white"/>
<path d="M80 42.6666H-16V64H80V42.6666Z" fill="#128807"/>
<path d="M32.0001 40.5333C36.713 40.5333 40.5335 36.7128 40.5335 32C40.5335 27.2872 36.713 23.4667 32.0001 23.4667C27.2873 23.4667 23.4668 27.2872 23.4668 32C23.4668 36.7128 27.2873 40.5333 32.0001 40.5333Z" fill="#000088"/>
<path d="M31.9999 39.4667C36.1236 39.4667 39.4665 36.1237 39.4665 32C39.4665 27.8763 36.1236 24.5333 31.9999 24.5333C27.8761 24.5333 24.5332 27.8763 24.5332 32C24.5332 36.1237 27.8761 39.4667 31.9999 39.4667Z" fill="white"/>
<path d="M31.9997 33.4934C32.8244 33.4934 33.493 32.8248 33.493 32C33.493 31.1753 32.8244 30.5067 31.9997 30.5067C31.1749 30.5067 30.5063 31.1753 30.5063 32C30.5063 32.8248 31.1749 33.4934 31.9997 33.4934Z" fill="#000088"/>
<path d="M39.3542 33.3447C39.5586 33.3716 39.7462 33.2277 39.7731 33.0233C39.8 32.8188 39.6561 32.6313 39.4517 32.6044C39.2473 32.5775 39.0597 32.7214 39.0328 32.9258C39.0059 33.1302 39.1498 33.3178 39.3542 33.3447Z" fill="#000088"/>
<path d="M32.0001 39.4666L32.2561 34.9866L32.0001 32.8533L31.7441 34.9866L32.0001 39.4666Z" fill="#000088"/>
<path d="M38.7555 35.2023C38.946 35.2812 39.1643 35.1908 39.2433 35.0003C39.3222 34.8098 39.2317 34.5914 39.0412 34.5125C38.8507 34.4336 38.6323 34.5241 38.5534 34.7145C38.4745 34.905 38.565 35.1234 38.7555 35.2023Z" fill="#000088"/>
<path d="M30.0674 39.2123L31.4741 34.9512L31.779 32.8243L30.9796 34.8187L30.0674 39.2123Z" fill="#000088"/>
<path d="M37.6966 36.8415C37.8602 36.967 38.0946 36.9362 38.2201 36.7726C38.3456 36.609 38.3147 36.3746 38.1512 36.2491C37.9876 36.1236 37.7532 36.1545 37.6277 36.318C37.5022 36.4816 37.533 36.716 37.6966 36.8415Z" fill="#000088"/>
<path d="M28.2666 38.4662L30.7283 34.7144L31.5733 32.7388L30.2849 34.4584L28.2666 38.4662Z" fill="#000088"/>
<path d="M36.2496 38.1509C36.3752 38.3145 36.6095 38.3453 36.7731 38.2198C36.9367 38.0943 36.9675 37.8599 36.842 37.6963C36.7165 37.5328 36.4821 37.5019 36.3186 37.6274C36.155 37.7529 36.1241 37.9873 36.2496 38.1509Z" fill="#000088"/>
<path d="M26.7205 37.2797L30.0694 34.2929L31.3968 32.6034L29.7073 33.9309L26.7205 37.2797Z" fill="#000088"/>
<path d="M34.5126 39.0412C34.5915 39.2317 34.8099 39.3221 35.0004 39.2432C35.1909 39.1643 35.2813 38.9459 35.2024 38.7554C35.1235 38.5649 34.9051 38.4745 34.7147 38.5534C34.5242 38.6323 34.4337 38.8507 34.5126 39.0412Z" fill="#000088"/>
<path d="M25.5335 35.7333L29.5413 33.715L31.2608 32.4267L29.2853 33.2716L25.5335 35.7333Z" fill="#000088"/>
<path d="M32.6043 39.4515C32.6313 39.6559 32.8188 39.7998 33.0232 39.7729C33.2276 39.746 33.3715 39.5584 33.3446 39.354C33.3177 39.1496 33.1302 39.0057 32.9258 39.0326C32.7213 39.0595 32.5774 39.2471 32.6043 39.4515Z" fill="#000088"/>
<path d="M24.7876 33.9326L29.1812 33.0203L31.1756 32.2209L29.0487 32.5258L24.7876 33.9326Z" fill="#000088"/>
<path d="M30.6553 39.3541C30.6284 39.5585 30.7723 39.7461 30.9767 39.773C31.1812 39.7999 31.3687 39.656 31.3956 39.4516C31.4225 39.2471 31.2786 39.0596 31.0742 39.0327C30.8698 39.0058 30.6822 39.1497 30.6553 39.3541Z" fill="#000088"/>
<path d="M24.5336 32L29.0136 32.256L31.147 32L29.0136 31.744L24.5336 32Z" fill="#000088"/>
<path d="M28.7977 38.7555C28.7188 38.946 28.8092 39.1643 28.9997 39.2433C29.1902 39.3222 29.4086 39.2317 29.4875 39.0412C29.5664 38.8507 29.4759 38.6323 29.2855 38.5534C29.095 38.4745 28.8766 38.565 28.7977 38.7555Z" fill="#000088"/>
<path d="M24.7879 30.0675L29.049 31.4743L31.1759 31.7791L29.1815 30.9797L24.7879 30.0675Z" fill="#000088"/>
<path d="M27.1589 37.6965C27.0334 37.8601 27.0642 38.0944 27.2278 38.22C27.3914 38.3455 27.6257 38.3146 27.7512 38.151C27.8768 37.9875 27.8459 37.7531 27.6823 37.6276C27.5188 37.5021 27.2844 37.5329 27.1589 37.6965Z" fill="#000088"/>
<path d="M25.5343 28.2666L29.2861 30.7283L31.2616 31.5733L29.5421 30.2849L25.5343 28.2666Z" fill="#000088"/>
<path d="M25.8494 36.2492C25.6858 36.3747 25.6549 36.609 25.7805 36.7726C25.906 36.9362 26.1403 36.967 26.3039 36.8415C26.4675 36.716 26.4983 36.4817 26.3728 36.3181C26.2473 36.1545 26.0129 36.1236 25.8494 36.2492Z" fill="#000088"/>
<path d="M26.7208 26.7203L29.7076 30.0691L31.3971 31.3966L30.0696 29.7071L26.7208 26.7203Z" fill="#000088"/>
<path d="M24.9592 34.5125C24.7687 34.5914 24.6782 34.8098 24.7571 35.0003C24.836 35.1908 25.0544 35.2812 25.2449 35.2023C25.4354 35.1234 25.5259 34.905 25.447 34.7145C25.3681 34.524 25.1497 34.4336 24.9592 34.5125Z" fill="#000088"/>
<path d="M28.267 25.5336L30.2853 29.5414L31.5737 31.2609L30.7287 29.2854L28.267 25.5336Z" fill="#000088"/>
<path d="M24.549 32.6045C24.3446 32.6314 24.2007 32.8189 24.2276 33.0233C24.2545 33.2278 24.442 33.3717 24.6465 33.3448C24.8509 33.3178 24.9948 33.1303 24.9679 32.9259C24.941 32.7215 24.7534 32.5776 24.549 32.6045Z" fill="#000088"/>
<path d="M30.0679 24.7878L30.9802 29.1814L31.7796 31.1758L31.4747 29.0489L30.0679 24.7878Z" fill="#000088"/>
<path d="M24.6458 30.6554C24.4414 30.6285 24.2538 30.7724 24.2269 30.9769C24.2 31.1813 24.3439 31.3688 24.5483 31.3957C24.7527 31.4226 24.9403 31.2787 24.9672 31.0743C24.9941 30.8699 24.8502 30.6824 24.6458 30.6554Z" fill="#000088"/>
<path d="M31.9999 24.5335L31.7439 29.0135L31.9999 31.1469L32.2559 29.0135L31.9999 24.5335Z" fill="#000088"/>
<path d="M25.2445 28.7978C25.054 28.7189 24.8357 28.8093 24.7567 28.9998C24.6778 29.1903 24.7683 29.4087 24.9588 29.4876C25.1493 29.5665 25.3677 29.4761 25.4466 29.2856C25.5255 29.0951 25.435 28.8767 25.2445 28.7978Z" fill="#000088"/>
<path d="M33.9326 24.7878L32.5259 29.0489L32.221 31.1758L33.0204 29.1814L33.9326 24.7878Z" fill="#000088"/>
<path d="M26.3034 27.1585C26.1398 27.033 25.9054 27.0638 25.7799 27.2274C25.6544 27.391 25.6853 27.6254 25.8488 27.7509C26.0124 27.8764 26.2468 27.8455 26.3723 27.682C26.4978 27.5184 26.467 27.284 26.3034 27.1585Z" fill="#000088"/>
<path d="M35.7334 25.5338L33.2717 29.2856L32.4267 31.2612L33.7151 29.5416L35.7334 25.5338Z" fill="#000088"/>
<path d="M27.7508 25.8491C27.6253 25.6855 27.391 25.6547 27.2274 25.7802C27.0638 25.9057 27.033 26.1401 27.1585 26.3037C27.284 26.4672 27.5183 26.4981 27.6819 26.3726C27.8455 26.2471 27.8764 26.0127 27.7508 25.8491Z" fill="#000088"/>
<path d="M37.28 26.7204L33.9311 29.7072L32.6036 31.3967L34.2932 30.0693L37.28 26.7204Z" fill="#000088"/>
<path d="M29.4869 24.9588C29.408 24.7683 29.1896 24.6779 28.9991 24.7568C28.8086 24.8357 28.7182 25.0541 28.7971 25.2446C28.876 25.4351 29.0944 25.5255 29.2849 25.4466C29.4753 25.3677 29.5658 25.1493 29.4869 24.9588Z" fill="#000088"/>
<path d="M38.466 28.2667L34.4582 30.285L32.7387 31.5733L34.7142 30.7284L38.466 28.2667Z" fill="#000088"/>
<path d="M31.3952 24.5485C31.3682 24.3441 31.1807 24.2002 30.9763 24.2271C30.7719 24.254 30.628 24.4416 30.6549 24.646C30.6818 24.8504 30.8693 24.9943 31.0738 24.9674C31.2782 24.9405 31.4221 24.7529 31.3952 24.5485Z" fill="#000088"/>
<path d="M39.2119 30.0674L34.8183 30.9797L32.8239 31.7791L34.9508 31.4742L39.2119 30.0674Z" fill="#000088"/>
<path d="M33.3442 24.6459C33.3711 24.4415 33.2272 24.2539 33.0228 24.227C32.8184 24.2001 32.6308 24.344 32.6039 24.5484C32.577 24.7529 32.7209 24.9404 32.9253 24.9673C33.1297 24.9942 33.3173 24.8503 33.3442 24.6459Z" fill="#000088"/>
<path d="M39.4664 32L34.9864 31.744L32.853 32L34.9864 32.256L39.4664 32Z" fill="#000088"/>
<path d="M35.2018 25.2445C35.2807 25.054 35.1903 24.8357 34.9998 24.7567C34.8093 24.6778 34.5909 24.7683 34.512 24.9588C34.4331 25.1493 34.5236 25.3677 34.7141 25.4466C34.9045 25.5255 35.1229 25.435 35.2018 25.2445Z" fill="#000088"/>
<path d="M39.2116 33.9325L34.9505 32.5257L32.8236 32.2209L34.818 33.0203L39.2116 33.9325Z" fill="#000088"/>
<path d="M36.8411 26.3035C36.9666 26.1399 36.9358 25.9056 36.7722 25.78C36.6086 25.6545 36.3743 25.6854 36.2488 25.849C36.1232 26.0125 36.1541 26.2469 36.3177 26.3724C36.4812 26.4979 36.7156 26.4671 36.8411 26.3035Z" fill="#000088"/>
<path d="M38.4657 35.7334L34.7139 33.2717L32.7384 32.4267L34.4579 33.7151L38.4657 35.7334Z" fill="#000088"/>
<path d="M38.1506 27.7508C38.3142 27.6253 38.3451 27.391 38.2195 27.2274C38.094 27.0638 37.8597 27.033 37.6961 27.1585C37.5325 27.284 37.5017 27.5183 37.6272 27.6819C37.7527 27.8455 37.9871 27.8764 38.1506 27.7508Z" fill="#000088"/>
<path d="M37.2792 37.2797L34.2924 33.9309L32.6029 32.6034L33.9304 34.2929L37.2792 37.2797Z" fill="#000088"/>
<path d="M39.0408 29.4875C39.2313 29.4086 39.3218 29.1902 39.2429 28.9997C39.164 28.8092 38.9456 28.7188 38.7551 28.7977C38.5646 28.8766 38.4741 29.095 38.553 29.2855C38.6319 29.476 38.8503 29.5664 39.0408 29.4875Z" fill="#000088"/>
<path d="M35.733 38.4663L33.7147 34.4585L32.4263 32.7389L33.2713 34.7145L35.733 38.4663Z" fill="#000088"/>
<path d="M39.451 31.3955C39.6554 31.3686 39.7993 31.1811 39.7724 30.9767C39.7455 30.7722 39.558 30.6283 39.3535 30.6552C39.1491 30.6822 39.0052 30.8697 39.0321 31.0741C39.059 31.2785 39.2466 31.4224 39.451 31.3955Z" fill="#000088"/>
<path d="M33.9321 39.2122L33.0198 34.8186L32.2204 32.8242L32.5253 34.9511L33.9321 39.2122Z" fill="#000088"/>
</g>
</svg>
