<svg width="64" height="64" viewBox="0 0 64 64" fill="none" xmlns="http://www.w3.org/2000/svg">
<mask id="mask0_406_972" style="mask-type:alpha" maskUnits="userSpaceOnUse" x="0" y="0" width="64" height="64">
<circle cx="32" cy="32" r="32" fill="#D9D9D9"/>
</mask>
<g mask="url(#mask0_406_972)">
<path d="M80 0H-16V64H80V0Z" fill="white"/>
<path d="M-0.172363 20.1664L8.70284 6.85364ZM3.15584 22.3852L12.031 9.07244ZM6.48404 24.604L15.3592 11.2912Z" fill="black"/>
<path d="M-0.172363 20.1664L8.70284 6.85364M3.15584 22.3852L12.031 9.07244M6.48404 24.604L15.3592 11.2912" stroke="black" stroke-width="2.66667"/>
<path d="M48.6411 52.7088L57.5163 39.396ZM51.9693 54.9276L60.8445 41.6148ZM55.2975 57.1464L64.1727 43.8336Z" fill="black"/>
<path d="M48.6411 52.7088L57.5163 39.396M51.9693 54.9276L60.8445 41.6148M55.2975 57.1464L64.1727 43.8336" stroke="black" stroke-width="2.66667"/>
<path d="M50.8599 44.5732L61.9539 51.9692Z" fill="black"/>
<path d="M50.8599 44.5732L61.9539 51.9692" stroke="white" stroke-width="1.33333"/>
<path d="M45.3128 40.8752C50.2145 33.5228 48.2277 23.5889 40.8752 18.6872C33.5228 13.7856 23.5889 15.7724 18.6872 23.1248C13.7856 30.4773 15.7724 40.4112 23.1248 45.3128C30.4773 50.2145 40.4112 48.2277 45.3128 40.8752Z" fill="#CD2E3A"/>
<path d="M18.6872 23.1248C17.5103 24.8902 17.0829 27.0508 17.499 29.1313C17.9151 31.2119 19.1406 33.0419 20.906 34.2188C22.6714 35.3957 24.832 35.8232 26.9125 35.4071C28.9931 34.991 30.8231 33.7654 32 32C33.1769 30.2346 35.007 29.0091 37.0875 28.593C39.168 28.1769 41.3286 28.6043 43.094 29.7812C44.8594 30.9581 46.085 32.7882 46.5011 34.8687C46.9172 36.9492 46.4898 39.1098 45.3128 40.8752C42.959 44.406 39.2989 46.8571 35.1379 47.6893C30.9768 48.5215 26.6556 47.6667 23.1248 45.3128C19.594 42.959 17.1429 39.2989 16.3107 35.1379C15.4785 30.9768 16.3334 26.6556 18.6872 23.1248Z" fill="#0047A0"/>
<path d="M8.70264 57.1464L-0.172567 43.8336ZM12.0308 54.9276L3.15563 41.6148ZM15.359 52.7088L6.48384 39.396Z" fill="black"/>
<path d="M8.70264 57.1464L-0.172567 43.8336M12.0308 54.9276L3.15563 41.6148M15.359 52.7088L6.48384 39.396" stroke="black" stroke-width="2.66667"/>
<path d="M57.5166 24.6039L48.6414 11.2911ZM60.8448 22.3851L51.9696 9.07234ZM64.173 20.1663L55.2978 6.85354Z" fill="black"/>
<path d="M57.5166 24.6039L48.6414 11.2911M60.8448 22.3851L51.9696 9.07234M64.173 20.1663L55.2978 6.85354" stroke="black" stroke-width="2.66667"/>
<path d="M5.9292 49.3806L9.2574 47.1618ZM50.8599 19.4268L54.7428 16.8382ZM58.071 14.6194L61.3992 12.4006Z" fill="black"/>
<path d="M5.9292 49.3806L9.2574 47.1618M50.8599 19.4268L54.7428 16.8382M58.071 14.6194L61.3992 12.4006" stroke="white" stroke-width="1.33333"/>
</g>
</svg>
