<svg width="64" height="64" viewBox="0 0 64 64" fill="none" xmlns="http://www.w3.org/2000/svg">
<mask id="mask0_406_728" style="mask-type:alpha" maskUnits="userSpaceOnUse" x="0" y="0" width="64" height="64">
<circle cx="32" cy="32" r="32" fill="#D9D9D9"/>
</mask>
<g mask="url(#mask0_406_728)">
<path d="M90 0H-6V64H90V0Z" fill="#FF0000"/>
<path d="M32.4 0H-6V64H32.4V0Z" fill="#006600"/>
<path fill-rule="evenodd" clip-rule="evenodd" d="M44.9185 41.9264C40.0849 41.7808 17.9201 27.9456 17.7681 25.7424L18.992 23.7013C21.1906 26.8959 43.8496 40.3509 46.0752 39.8741L44.9184 41.9258" fill="#FFFF00"/>
<path d="M44.9185 41.9264C40.0849 41.7808 17.9201 27.9456 17.7681 25.7424L18.992 23.7013C21.1906 26.8959 43.8496 40.3509 46.0752 39.8741L44.9184 41.9258" stroke="black" stroke-width="0.09168" stroke-linecap="round" stroke-linejoin="round"/>
<path fill-rule="evenodd" clip-rule="evenodd" d="M18.7346 23.424C18.301 24.591 24.5184 28.4349 31.9991 32.9846C39.4794 37.5341 45.9295 40.3456 46.4076 39.9424C46.4368 39.8903 46.6428 39.5358 46.6239 39.5387C46.5343 39.6737 46.3161 39.7163 45.9758 39.6183C43.9548 39.0353 38.6838 36.6159 32.1559 32.6573C25.6283 28.6984 19.9489 25.0503 19.0662 23.5002C19.0048 23.3928 18.9611 23.1968 18.9699 23.0444L18.9485 23.0441L18.7605 23.3726L18.7347 23.4241L18.7346 23.424ZM45.0322 41.9904C44.9502 42.1391 44.7974 42.1441 44.5071 42.1122C42.6991 41.9121 37.2129 39.2442 30.7212 35.3581C23.1676 30.8365 16.9292 26.7165 17.606 25.6397L17.7902 25.3141L17.8264 25.3254C17.2178 27.1502 30.1381 34.5379 30.8987 35.009C38.3746 39.6405 44.6771 42.3451 45.2349 41.6422L45.032 41.9912V41.9909L45.0322 41.9904Z" fill="#FFFF00" stroke="black" stroke-width="0.09168" stroke-linecap="round" stroke-linejoin="round"/>
<path fill-rule="evenodd" clip-rule="evenodd" d="M32.4273 27.0768C37.2652 27.0386 43.2353 26.4157 46.671 25.0464L45.9308 23.8438C43.9 24.9677 37.8972 25.7068 32.3864 25.8174C25.8687 25.7574 21.268 25.1505 18.9629 23.6038L18.2642 24.8845C22.5016 26.6776 26.8438 27.0583 32.4273 27.0768Z" fill="#FFFF00" stroke="black" stroke-width="0.09168" stroke-linecap="round" stroke-linejoin="round"/>
<path fill-rule="evenodd" clip-rule="evenodd" d="M46.8706 25.0736C46.7523 25.2627 44.5117 26.0354 41.2109 26.6056C38.9728 26.9468 36.0534 27.2385 32.4102 27.2421C28.949 27.2453 26.1214 26.9989 23.9808 26.7088C20.5158 26.1655 18.7275 25.4096 18.0664 25.1425C18.1296 25.0167 18.1703 24.9285 18.2312 24.8111C20.1344 25.5689 21.9311 26.0258 24.0359 26.3497C26.1624 26.6377 28.9559 26.8876 32.4 26.8843C36.0263 26.8807 38.9135 26.5668 41.1386 26.2358C44.5234 25.6898 46.3723 24.9872 46.632 24.661L46.8711 25.0736H46.8707H46.8706ZM46.2209 23.854C45.854 24.1486 44.026 24.7969 40.8099 25.3105C38.6635 25.6181 35.9344 25.8935 32.4475 25.8968C29.1348 25.9001 26.4284 25.6768 24.3699 25.377C21.1036 24.9504 19.3652 24.1809 18.7385 23.9566C18.8009 23.8488 18.8644 23.7418 18.9296 23.6344C19.4172 23.8799 21.0949 24.561 24.4057 25.03C26.4409 25.3186 29.1515 25.5336 32.4477 25.5302C35.9181 25.5267 38.6161 25.246 40.7489 24.9401C43.9817 24.4953 45.7213 23.6686 45.9854 23.4615L46.2211 23.8537L46.2209 23.854Z" fill="#FFFF00" stroke="black" stroke-width="0.09168" stroke-linecap="round" stroke-linejoin="round"/>
<path fill-rule="evenodd" clip-rule="evenodd" d="M16.541 32.9057C19.5167 34.5061 26.1258 35.3127 32.38 35.3682C38.0746 35.3772 45.4933 34.488 48.2675 33.0178L48.1912 31.4159C47.3233 32.7723 39.3731 34.0733 32.3182 34.0201C25.2634 33.9669 18.7122 32.8772 16.5283 31.4666L16.541 32.9052" fill="#FFFF00"/>
<path d="M16.541 32.9057C19.5167 34.5061 26.1258 35.3127 32.38 35.3682C38.0746 35.3772 45.4933 34.488 48.2675 33.0178L48.1912 31.4159C47.3233 32.7723 39.3731 34.0733 32.3182 34.0201C25.2634 33.9669 18.7122 32.8772 16.5283 31.4666L16.541 32.9052" stroke="black" stroke-width="0.09168" stroke-linecap="round" stroke-linejoin="round"/>
<path fill-rule="evenodd" clip-rule="evenodd" d="M48.419 32.6751L48.4192 33.0571C48.0022 33.5557 45.3878 34.3092 42.1093 34.8399C39.6141 35.2224 36.3609 35.511 32.3073 35.511C28.4563 35.511 25.3853 35.2364 23.0037 34.8707C19.239 34.3225 16.831 33.3626 16.3477 33.076L16.3498 32.6304C17.8017 33.5957 21.7355 34.3019 23.0565 34.5181C25.4226 34.8813 28.4754 35.1538 32.3072 35.1538C36.3418 35.1538 39.5767 34.8672 42.0562 34.4872C44.4083 34.1474 47.7592 33.2637 48.4189 32.6753L48.419 32.6751ZM48.4206 31.3164L48.4208 31.6984C48.0038 32.1967 45.3894 32.9502 42.1109 33.4808C39.6157 33.8633 36.3625 34.1519 32.3089 34.1519C28.4579 34.1519 25.3869 33.8776 23.0053 33.5117C19.2406 32.9637 16.8326 32.0038 16.3493 31.7171L16.3514 31.2715C17.8033 32.2367 21.7371 32.943 23.0581 33.1588C25.4242 33.5223 28.477 33.795 32.3088 33.795C36.3434 33.795 39.5783 33.5082 42.0578 33.1279C44.4099 32.7881 47.7608 31.9045 48.4205 31.3161L48.4206 31.3164Z" fill="#FFFF00" stroke="black" stroke-width="0.09168" stroke-linecap="round" stroke-linejoin="round"/>
<path fill-rule="evenodd" clip-rule="evenodd" d="M32.3665 41.6512C25.523 41.6104 19.6591 39.7858 18.4209 39.4842L19.3238 40.8977C21.511 41.8177 27.2317 43.1889 32.4321 43.037C37.6328 42.8853 42.1777 42.4825 45.3806 40.9233L46.3064 39.4584C44.1237 40.4864 36.6956 41.6406 32.3665 41.6512Z" fill="#FFFF00" stroke="black" stroke-width="0.09168" stroke-linecap="round" stroke-linejoin="round"/>
<path fill-rule="evenodd" clip-rule="evenodd" d="M45.728 40.5952C45.592 40.8031 45.4533 41.0084 45.3126 41.2079C43.8019 41.7406 41.4215 42.2998 40.4171 42.4629C38.3652 42.8857 35.1907 43.198 32.3732 43.1994C26.3108 43.1106 21.3484 41.9239 19.0139 40.9116L18.8255 40.5877L18.8563 40.539L19.1757 40.6629C23.3274 42.1483 27.9903 42.7408 32.4074 42.8472C35.2135 42.8571 38.0226 42.5256 40.2941 42.1194C43.7775 41.4215 45.186 40.8954 45.6181 40.6569L45.728 40.5952ZM46.5307 39.2711C46.5343 39.2752 46.5378 39.2792 46.5412 39.2836C46.4395 39.4553 46.3346 39.63 46.2272 39.8055C45.4215 40.0935 43.2349 40.7333 40.0418 41.1798C37.938 41.4664 36.6303 41.744 32.4452 41.8253C24.6028 41.6257 19.5252 40.0923 18.3189 39.7141L18.1401 39.3712C22.6851 40.5576 27.3277 41.3859 32.4454 41.4705C36.2744 41.389 37.9033 41.107 39.9897 40.8225C43.7131 40.2436 45.5891 39.6306 46.1521 39.4536C46.1451 39.4435 46.1368 39.4327 46.1274 39.4217L46.5311 39.2709L46.5307 39.2711Z" fill="#FFFF00" stroke="black" stroke-width="0.088" stroke-linecap="round" stroke-linejoin="round"/>
<path fill-rule="evenodd" clip-rule="evenodd" d="M46.6127 31.6416C46.6349 36.1436 44.3311 40.1834 42.4755 41.9656C39.8502 44.4871 36.3694 46.109 32.3044 46.1837C27.7652 46.2671 23.4852 43.3079 22.3372 42.0079C20.0927 39.4663 18.2654 36.2388 18.2068 31.889C18.4848 26.9756 20.4137 23.553 23.2097 21.206C26.0057 18.8589 29.7286 17.7159 32.8291 17.7976C36.4063 17.8921 40.5851 19.6469 43.4724 23.1308C45.3641 25.4133 46.1833 27.8904 46.6127 31.6416ZM32.343 16.2269C41.0606 16.2269 48.2303 23.321 48.2303 32.0194C48.2303 40.7176 41.0606 47.8121 32.343 47.8121C23.6254 47.8121 16.5151 40.7178 16.5151 32.0194C16.5151 23.321 23.6254 16.2269 32.343 16.2269Z" fill="#FFFF00" stroke="black" stroke-width="0.09168" stroke-linecap="round" stroke-linejoin="round"/>
<path fill-rule="evenodd" clip-rule="evenodd" d="M32.3857 16.1729C41.1111 16.1729 48.2275 23.2901 48.2275 32.0164C48.2275 40.7425 41.111 47.8596 32.3857 47.8596C23.6603 47.8596 16.5439 40.7426 16.5439 32.0164C16.5439 23.2901 23.6604 16.1729 32.3857 16.1729ZM16.8926 32.0164C16.8926 40.538 23.8903 47.5112 32.3857 47.5112C40.8812 47.5112 47.879 40.538 47.879 32.0164C47.879 23.4945 40.8811 16.5214 32.3857 16.5214C23.8903 16.5214 16.8926 23.4948 16.8926 32.0164Z" fill="#FFFF00" stroke="black" stroke-width="0.09168" stroke-linecap="round" stroke-linejoin="round"/>
<path fill-rule="evenodd" clip-rule="evenodd" d="M32.3986 17.4896C40.3555 17.4896 46.9095 24.021 46.9095 32.0023C46.9095 39.9837 40.3554 46.5147 32.3986 46.5147C24.4418 46.5147 17.8877 39.9837 17.8877 32.0023C17.8877 24.021 24.4419 17.4896 32.3986 17.4896ZM18.2362 32.0022C18.2362 39.7918 24.6328 46.166 32.3986 46.166C40.1643 46.166 46.561 39.7918 46.561 32.0022C46.561 24.2124 40.1645 17.8382 32.3986 17.8382C24.6328 17.8382 18.2362 24.2124 18.2362 32.0022Z" fill="#FFFF00" stroke="black" stroke-width="0.09168" stroke-linecap="round" stroke-linejoin="round"/>
<path fill-rule="evenodd" clip-rule="evenodd" d="M33.0369 16.1088H31.6792L31.6808 47.9424H33.0431L33.0369 16.1088Z" fill="#FFFF00" stroke="black" stroke-width="0.09168" stroke-linecap="round" stroke-linejoin="round"/>
<path fill-rule="evenodd" clip-rule="evenodd" d="M32.9006 15.9274H33.2462L33.2492 48.1274H32.9033L32.9006 15.9274ZM31.5532 15.9277H31.9015L31.902 48.1277H31.5534V15.9277H31.5532Z" fill="#FFFF00" stroke="black" stroke-width="0.09168" stroke-linecap="round" stroke-linejoin="round"/>
<path fill-rule="evenodd" clip-rule="evenodd" d="M48.2386 32.6296V31.4527L47.2802 30.5599L41.8402 29.1199L34.0002 28.3199L24.5602 28.7999L17.8402 30.3999L16.4834 31.4047V32.5819L19.9202 31.04L28.0802 29.76H35.9202L41.6802 30.4L45.6802 31.36L48.2386 32.6296Z" fill="#FFFF00" stroke="black" stroke-width="0.09168" stroke-linecap="round" stroke-linejoin="round"/>
<path fill-rule="evenodd" clip-rule="evenodd" d="M32.392 29.5632C36.1332 29.5563 39.7632 29.9177 42.6424 30.4783C45.6134 31.0722 47.7043 31.8152 48.4192 32.6497L48.4184 33.0628C47.5562 32.0244 44.7427 31.2631 42.5755 30.8279C39.7182 30.2721 36.1126 29.9133 32.392 29.9202C28.4659 29.9275 24.81 30.2993 21.9945 30.8487C19.7353 31.297 16.7224 32.1875 16.3462 33.066V32.6357C16.5528 32.0277 18.7963 31.119 21.9436 30.489C24.7803 29.9358 28.4428 29.5704 32.392 29.5632ZM32.3936 28.2044C36.1348 28.1977 39.7648 28.5592 42.644 29.1195C45.615 29.7138 47.7059 30.4564 48.4208 31.2909L48.42 31.7041C47.5578 30.6659 44.7443 29.9045 42.5771 29.4695C39.7198 28.9134 36.1142 28.5546 32.3936 28.5617C28.4675 28.5688 24.8294 28.9409 22.0136 29.49C19.8334 29.9033 16.6974 30.8291 16.3476 31.7076V31.277C16.5542 30.6756 18.8432 29.7344 21.9452 29.1303C24.7819 28.5772 28.4444 28.2119 32.3936 28.2044Z" fill="#FFFF00" stroke="black" stroke-width="0.09168" stroke-linecap="round" stroke-linejoin="round"/>
<path fill-rule="evenodd" clip-rule="evenodd" d="M32.3168 21.2736C38.2127 21.2441 43.3552 22.0979 45.708 23.3032L46.5662 24.7878C44.5213 23.6857 38.9733 22.5398 32.3254 22.7112C26.9088 22.7445 21.1211 23.3075 18.2173 24.8568L19.2418 23.1433C21.625 21.9075 27.2454 21.2804 32.317 21.2739" fill="#FFFF00"/>
<path d="M32.3168 21.2736C38.2127 21.2441 43.3552 22.0979 45.708 23.3032L46.5662 24.7878C44.5213 23.6857 38.9733 22.5398 32.3254 22.7112C26.9088 22.7445 21.1211 23.3075 18.2173 24.8568L19.2418 23.1433C21.625 21.9075 27.2454 21.2804 32.317 21.2739" stroke="black" stroke-width="0.09168" stroke-linecap="round" stroke-linejoin="round"/>
<path fill-rule="evenodd" clip-rule="evenodd" d="M32.395 22.4993C35.7577 22.4904 39.007 22.68 41.5912 23.1462C43.9977 23.5941 46.2928 24.2664 46.6209 24.6279L46.8754 25.0775C46.0773 24.5564 44.0912 23.9761 41.5411 23.4925C38.9802 23.0112 35.7331 22.8518 32.3891 22.8605C28.5936 22.8475 25.6448 23.0479 23.1141 23.4892C20.4376 23.99 18.5806 24.7054 18.1226 25.0453L18.3719 24.5701C19.262 24.116 20.6743 23.5686 23.0476 23.1413C25.6647 22.6632 28.6448 22.5199 32.3952 22.4993L32.395 22.4993ZM32.3936 21.1418C35.6117 21.1333 38.7891 21.3126 41.2659 21.7579C43.2193 22.1381 45.1512 22.7318 45.8585 23.2601L46.2306 23.8514C45.5981 23.1482 43.2169 22.4819 41.1148 22.1087C38.657 21.6848 35.6116 21.517 32.3935 21.4902C29.0162 21.4996 25.8951 21.7065 23.4732 22.1475C21.1626 22.5872 19.6716 23.1077 19.0407 23.5143L19.3679 23.0204C20.2386 22.5621 21.6451 22.1411 23.4164 21.797C25.8563 21.3527 28.9965 21.1512 32.3936 21.1418Z" fill="#FFFF00" stroke="black" stroke-width="0.09168" stroke-linecap="round" stroke-linejoin="round"/>
<path fill-rule="evenodd" clip-rule="evenodd" d="M40.264 38.6016C37.3491 38.0575 34.4289 37.9784 32.3893 38.0024C22.5641 38.1176 19.3902 40.0199 19.0029 40.5959L18.2686 39.3988C20.77 37.5857 26.1202 36.5689 32.4425 36.6729C35.7254 36.7267 38.5583 36.9447 40.9415 37.4063L40.2638 38.6019" fill="#FFFF00"/>
<path d="M40.264 38.6016C37.3491 38.0575 34.4289 37.9784 32.3893 38.0024C22.5641 38.1176 19.3902 40.0199 19.0029 40.5959L18.2686 39.3988C20.77 37.5857 26.1202 36.5689 32.4425 36.6729C35.7254 36.7267 38.5583 36.9447 40.9415 37.4063L40.2638 38.6019" stroke="black" stroke-width="0.09168" stroke-linecap="round" stroke-linejoin="round"/>
<path fill-rule="evenodd" clip-rule="evenodd" d="M32.3328 37.8336C35.0659 37.8743 37.7487 37.9872 40.3381 38.4701L40.1506 38.8011C37.7456 38.3572 35.1818 38.1873 32.3421 38.2011C28.716 38.1728 25.0485 38.5114 21.8555 39.4278C20.848 39.7082 19.1802 40.3559 19.0101 40.8912L18.8235 40.5835C18.8773 40.2672 19.8854 39.6106 21.7698 39.0811C25.4271 38.0338 28.848 37.8573 32.3328 37.8333L32.3328 37.8336ZM32.4568 36.4581C35.2885 36.5111 38.2128 36.642 41.0552 37.205L40.86 37.5496C38.2932 37.0401 35.8409 36.8702 32.4735 36.8184C28.8359 36.825 24.9774 37.0844 21.4691 38.1044C20.3364 38.4343 18.3815 39.1476 18.3164 39.7124L18.1299 39.3819C18.1724 38.8689 19.8646 38.1998 21.3872 37.7569C24.9225 36.7291 28.7911 36.4648 32.4568 36.4581Z" fill="#FFFF00" stroke="black" stroke-width="0.088" stroke-linecap="round" stroke-linejoin="round"/>
<path fill-rule="evenodd" clip-rule="evenodd" d="M46.4129 39.5808L45.2323 41.4127L41.8401 38.4L33.0401 32.48L23.1201 27.04L17.9697 25.2784L19.0673 23.2432L19.4401 23.04L22.6401 23.84L33.2001 29.28L39.2801 33.12L44.4001 36.8L46.4801 39.2L46.4129 39.5808Z" fill="#FFFF00" stroke="black" stroke-width="0.09168" stroke-linecap="round" stroke-linejoin="round"/>
<path fill-rule="evenodd" clip-rule="evenodd" d="M17.784 25.3263C18.6873 24.7136 25.3262 27.6711 32.2728 31.8598C39.2009 36.0604 45.8211 40.8071 45.2235 41.6955L45.0269 42.0046L44.9368 42.0758C44.9561 42.0619 45.0557 41.9402 44.927 41.6108C44.6318 40.6395 39.9358 36.8922 32.144 32.1876C24.548 27.6582 18.2174 24.9282 17.5845 25.7086L17.784 25.3263ZM46.6544 39.5547C47.2256 38.4264 41.0678 33.7876 33.4333 29.2712C25.6232 24.8446 19.9942 22.239 18.9661 23.016L18.7376 23.4318C18.7356 23.4547 18.7459 23.4034 18.7942 23.3662C18.9812 23.2031 19.291 23.2141 19.4309 23.2115C21.2013 23.2381 26.2576 25.565 33.3518 29.632C36.4603 31.4424 46.4832 37.8706 46.4449 39.6783C46.4476 39.8336 46.4578 39.8656 46.3994 39.9426L46.6544 39.5547Z" fill="#FFFF00"/>
<path d="M46.6544 39.5547C47.2256 38.4264 41.0678 33.7876 33.4333 29.2712C25.6232 24.8446 19.9942 22.239 18.9661 23.016L18.7376 23.4318C18.7356 23.4547 18.7459 23.4034 18.7942 23.3662C18.9812 23.2031 19.291 23.2141 19.4309 23.2115C21.2013 23.2381 26.2576 25.565 33.3518 29.632C36.4603 31.4424 46.4832 37.8706 46.4449 39.6783C46.4476 39.8336 46.4578 39.8656 46.3994 39.9426L46.6544 39.5547ZM46.6544 39.5547L46.6543 39.5545M17.784 25.3263C18.6873 24.7136 25.3262 27.6711 32.2728 31.8598C39.2009 36.0604 45.8211 40.8071 45.2235 41.6955L45.0269 42.0046L44.9368 42.0758C44.9561 42.0619 45.0557 41.9402 44.927 41.6108C44.6318 40.6395 39.9358 36.8922 32.144 32.1876C24.548 27.6582 18.2174 24.9282 17.5845 25.7086L17.784 25.3263Z" stroke="black" stroke-width="0.09168" stroke-linecap="round" stroke-linejoin="round"/>
<path d="M22.8958 33.7616C22.8958 36.365 23.9618 38.7196 25.6889 40.4404C27.4193 42.1648 29.7708 43.253 32.3784 43.253C34.9993 43.253 37.3779 42.1886 39.1009 40.4708C40.824 38.7532 41.8918 36.3824 41.8923 33.77H41.892V21.0997L22.8936 21.0771L22.8955 33.7616L22.8958 33.7616Z" fill="white" stroke="black" stroke-width="0.107259"/>
<path d="M23.2512 33.7793V33.7865C23.2512 36.2756 24.2819 38.5423 25.9352 40.1879C27.5919 41.8367 29.8735 42.8618 32.3695 42.8618C34.8784 42.8618 37.1554 41.8441 38.805 40.2017C40.4543 38.5593 41.4765 36.2924 41.4769 33.7946H41.4765V21.5025L23.2621 21.4995L23.251 33.7792M37.8145 25.1797L37.8151 33.0022L37.8085 33.8297C37.8085 34.0474 37.7955 34.2957 37.7701 34.507C37.6221 35.7437 37.0533 36.8217 36.2109 37.6603C35.2247 38.642 33.8636 39.2509 32.3634 39.2509C30.8711 39.2509 29.5412 38.6209 28.5508 37.6349C27.5348 36.6237 26.946 35.2372 26.946 33.8034L26.9438 25.1597L37.8142 25.1793L37.8145 25.1797Z" fill="#FF0000"/>
<path d="M23.2512 33.7793V33.7865C23.2512 36.2756 24.2819 38.5423 25.9352 40.1879C27.5919 41.8367 29.8735 42.8618 32.3695 42.8618C34.8784 42.8618 37.1554 41.8441 38.805 40.2017C40.4543 38.5593 41.4765 36.2924 41.4769 33.7946H41.4765V21.5025L23.2621 21.4995L23.251 33.7792M37.8145 25.1797L37.8151 33.0022L37.8085 33.8297C37.8085 34.0474 37.7955 34.2957 37.7701 34.507C37.6221 35.7437 37.0533 36.8217 36.2109 37.6603C35.2247 38.642 33.8636 39.2509 32.3634 39.2509C30.8711 39.2509 29.5412 38.6209 28.5508 37.6349C27.5348 36.6237 26.946 35.2372 26.946 33.8034L26.9438 25.1597L37.8142 25.1793L37.8145 25.1797Z" stroke="black" stroke-width="0.0811744"/>
<path d="M24.4302 24.7088C24.4518 23.8254 25.0786 23.6163 25.0831 23.6132C25.0876 23.6102 25.7601 23.8384 25.7578 24.717L24.4302 24.7088Z" fill="#FFFF00"/>
<path d="M23.8893 23.6305L23.7803 24.6456L24.4428 24.6471C24.4491 23.8072 25.0786 23.6675 25.0938 23.6706C25.1081 23.6698 25.732 23.8563 25.7487 24.6471H26.4129L26.2929 23.6241L23.8894 23.6302L23.8893 23.6305Z" fill="#FFFF00" stroke="black" stroke-width="0.08"/>
<path d="M23.7362 24.6497H26.4475C26.5047 24.6497 26.5514 24.7061 26.5514 24.7751C26.5514 24.844 26.5047 24.9001 26.4475 24.9001H23.7362C23.679 24.9001 23.6323 24.844 23.6323 24.7751C23.6323 24.7061 23.679 24.6497 23.7362 24.6497Z" fill="#FFFF00" stroke="black" stroke-width="0.08"/>
<path d="M24.7217 24.6448C24.7246 24.1148 25.0836 23.9648 25.0855 23.9651C25.0856 23.9651 25.4602 24.1197 25.4632 24.6448H24.7217Z" fill="#FFFF00" stroke="black" stroke-width="0.08"/>
<path d="M23.7935 23.208H26.3927C26.4474 23.208 26.4923 23.259 26.4923 23.3208C26.4923 23.3827 26.4474 23.4335 26.3927 23.4335H23.7935C23.7387 23.4335 23.6938 23.383 23.6938 23.3208C23.6938 23.259 23.7387 23.208 23.7935 23.208Z" fill="#FFFF00" stroke="black" stroke-width="0.08"/>
<path d="M23.8482 23.4352H26.3343C26.3866 23.4352 26.4295 23.4858 26.4295 23.5478C26.4295 23.6099 26.3866 23.6605 26.3343 23.6605H23.8482C23.7958 23.6605 23.7529 23.6099 23.7529 23.5478C23.7529 23.4858 23.7958 23.4352 23.8482 23.4352Z" fill="#FFFF00" stroke="black" stroke-width="0.08"/>
<path d="M24.6511 21.7408L24.8474 21.7411V21.8806H24.9906V21.738L25.1917 21.7387V21.8806H25.3353V21.7381H25.5366L25.5362 22.06C25.5362 22.1105 25.4956 22.1432 25.4485 22.1432H24.7427C24.6952 22.1432 24.6515 22.1053 24.6514 22.059L24.6509 21.7409L24.6511 21.7408Z" fill="#FFFF00" stroke="black" stroke-width="0.08"/>
<path d="M25.3902 22.1713L25.4345 23.2035L24.7461 23.2009L24.7917 22.1686L25.3902 22.1713Z" fill="#FFFF00" stroke="black" stroke-width="0.08"/>
<path d="M24.5502 22.6497L24.5712 23.2061L23.9111 23.2064L23.9298 22.6497L24.5502 22.6497Z" fill="#FFFF00" stroke="black" stroke-width="0.08"/>
<path d="M26.248 22.6497L26.269 23.2061L25.6089 23.2064L25.6275 22.6497L26.248 22.6497Z" fill="#FFFF00" stroke="black" stroke-width="0.08"/>
<path d="M23.8079 22.2464L23.9998 22.2469V22.3865H24.1402V22.2437L24.3369 22.2443V22.3865H24.4775V22.2437L24.6744 22.244L24.6741 22.5659C24.6741 22.6162 24.6343 22.6489 24.5883 22.6489H23.8976C23.8513 22.6489 23.8082 22.6112 23.8081 22.5648L23.8076 22.2466L23.8079 22.2464Z" fill="#FFFF00" stroke="black" stroke-width="0.08"/>
<path d="M25.5056 22.2464L25.6975 22.2469V22.3865H25.8379V22.2437L26.0346 22.2443V22.3865H26.1753V22.2437L26.3721 22.244L26.3718 22.5659C26.3718 22.6162 26.332 22.6489 26.286 22.6489H25.5953C25.549 22.6489 25.506 22.6112 25.5059 22.5648L25.5054 22.2466L25.5056 22.2464Z" fill="#FFFF00" stroke="black" stroke-width="0.08"/>
<path d="M25.024 22.4977C25.0198 22.3973 25.1643 22.3962 25.1626 22.4977V22.7435H25.024L25.024 22.4977Z" fill="black"/>
<path d="M24.1714 22.8545C24.1709 22.7575 24.3053 22.7555 24.3036 22.8545V23.0444H24.1714L24.1714 22.8545Z" fill="black"/>
<path d="M25.8735 22.8545C25.8731 22.7575 26.0074 22.7555 26.0058 22.8545V23.0444H25.8736L25.8735 22.8545Z" fill="black"/>
<path d="M24.4302 32.12C24.4518 31.2367 25.0786 31.0275 25.0831 31.0244C25.0876 31.0215 25.7601 31.2497 25.7578 32.1282L24.4302 32.12Z" fill="#FFFF00"/>
<path d="M23.8893 31.0416L23.7803 32.0568L24.4428 32.0582C24.4491 31.2183 25.0786 31.0786 25.0938 31.0817C25.1081 31.0809 25.732 31.2674 25.7487 32.0582H26.4129L26.2929 31.0353L23.8894 31.0413L23.8893 31.0416Z" fill="#FFFF00" stroke="black" stroke-width="0.08"/>
<path d="M23.7362 32.0608H26.4475C26.5047 32.0608 26.5514 32.1172 26.5514 32.1862C26.5514 32.2551 26.5047 32.3113 26.4475 32.3113H23.7362C23.679 32.3113 23.6323 32.2551 23.6323 32.1862C23.6323 32.1172 23.679 32.0608 23.7362 32.0608Z" fill="#FFFF00" stroke="black" stroke-width="0.08"/>
<path d="M24.7217 32.056C24.7246 31.5259 25.0836 31.3759 25.0855 31.3762C25.0856 31.3762 25.4602 31.5309 25.4632 32.056H24.7217Z" fill="#FFFF00" stroke="black" stroke-width="0.08"/>
<path d="M23.7935 30.6191H26.3927C26.4474 30.6191 26.4923 30.6701 26.4923 30.7319C26.4923 30.7938 26.4474 30.8446 26.3927 30.8446H23.7935C23.7387 30.8446 23.6938 30.7941 23.6938 30.7319C23.6938 30.6701 23.7387 30.6191 23.7935 30.6191Z" fill="#FFFF00" stroke="black" stroke-width="0.08"/>
<path d="M23.8482 30.8464H26.3343C26.3866 30.8464 26.4295 30.8971 26.4295 30.959C26.4295 31.0211 26.3866 31.0718 26.3343 31.0718H23.8482C23.7958 31.0718 23.7529 31.0211 23.7529 30.959C23.7529 30.8971 23.7958 30.8464 23.8482 30.8464Z" fill="#FFFF00" stroke="black" stroke-width="0.08"/>
<path d="M24.6511 29.152L24.8474 29.1523V29.2917H24.9906V29.1492L25.1917 29.1498V29.2918H25.3353V29.1492H25.5366L25.5362 29.4711C25.5362 29.5216 25.4956 29.5544 25.4485 29.5544H24.7427C24.6952 29.5544 24.6515 29.5164 24.6514 29.4701L24.6509 29.1521L24.6511 29.152Z" fill="#FFFF00" stroke="black" stroke-width="0.08"/>
<path d="M25.3902 29.5824L25.4345 30.6146L24.7461 30.6121L24.7917 29.5797L25.3902 29.5824Z" fill="#FFFF00" stroke="black" stroke-width="0.08"/>
<path d="M24.5502 30.0608L24.5712 30.6172L23.9111 30.6175L23.9298 30.0608L24.5502 30.0608Z" fill="#FFFF00" stroke="black" stroke-width="0.08"/>
<path d="M26.248 30.0608L26.269 30.6172L25.6089 30.6175L25.6275 30.0608L26.248 30.0608Z" fill="#FFFF00" stroke="black" stroke-width="0.08"/>
<path d="M23.8079 29.6576L23.9998 29.658V29.7976H24.1402V29.6548L24.3369 29.6554V29.7977H24.4775V29.6549L24.6744 29.6552L24.6741 29.9771C24.6741 30.0273 24.6343 30.06 24.5883 30.06H23.8976C23.8513 30.06 23.8082 30.0224 23.8081 29.9759L23.8076 29.6577L23.8079 29.6576Z" fill="#FFFF00" stroke="black" stroke-width="0.08"/>
<path d="M25.5056 29.6576L25.6975 29.658V29.7976H25.8379V29.6548L26.0346 29.6554V29.7977H26.1753V29.6549L26.3721 29.6552L26.3718 29.9771C26.3718 30.0273 26.332 30.06 26.286 30.06H25.5953C25.549 30.06 25.506 30.0224 25.5059 29.9759L25.5054 29.6577L25.5056 29.6576Z" fill="#FFFF00" stroke="black" stroke-width="0.08"/>
<path d="M25.024 29.9088C25.0198 29.8085 25.1643 29.8073 25.1626 29.9088V30.1546H25.024L25.024 29.9088Z" fill="black"/>
<path d="M24.1714 30.2656C24.1709 30.1686 24.3053 30.1667 24.3036 30.2656V30.4555H24.1714L24.1714 30.2656Z" fill="black"/>
<path d="M25.8735 30.2656C25.8731 30.1686 26.0074 30.1667 26.0058 30.2656V30.4555H25.8736L25.8735 30.2656Z" fill="black"/>
<path d="M27.3199 39.8342C26.7083 39.1965 27.0016 38.6044 27.0025 38.599C27.0036 38.5937 27.6394 38.2773 28.2612 38.8979L27.3199 39.8342Z" fill="#FFFF00"/>
<path d="M26.1736 39.4581L26.8171 40.2507L27.2849 39.7817C26.6934 39.1854 27.0378 38.6402 27.0508 38.6316C27.0602 38.6209 27.6322 38.3096 28.2051 38.855L28.6731 38.3837L27.8627 37.748L26.1735 39.4578L26.1736 39.4581Z" fill="#FFFF00" stroke="black" stroke-width="0.08"/>
<path d="M26.789 40.2852L28.6994 38.3612C28.7397 38.3207 28.8127 38.3273 28.8616 38.3759C28.9105 38.4244 28.9174 38.4972 28.8772 38.5377L26.9667 40.4617C26.9265 40.5022 26.8537 40.4958 26.8048 40.4473C26.7559 40.3987 26.7487 40.3257 26.789 40.2852Z" fill="#FFFF00" stroke="black" stroke-width="0.08"/>
<path d="M27.4799 39.5825C27.1059 39.2069 27.2524 38.8465 27.2539 38.8454C27.254 38.8453 27.6277 38.6884 28.0024 39.0563L27.4799 39.5825Z" fill="#FFFF00" stroke="black" stroke-width="0.08"/>
<path d="M25.8065 39.2286L27.6379 37.3842C27.6765 37.3454 27.7443 37.3494 27.7881 37.393C27.8321 37.4366 27.8365 37.5043 27.798 37.5431L25.9665 39.3875C25.928 39.4264 25.8605 39.4226 25.8163 39.3788C25.7725 39.3352 25.7679 39.2675 25.8065 39.2286Z" fill="#FFFF00" stroke="black" stroke-width="0.08"/>
<path d="M26.0061 39.3501L27.7578 37.586C27.7947 37.5489 27.8608 37.5541 27.9048 37.5978C27.9489 37.6415 27.9546 37.7077 27.9177 37.7448L26.166 39.5089C26.1291 39.5461 26.0629 39.5408 26.0189 39.4971C25.9749 39.4534 25.9692 39.3873 26.0061 39.3501Z" fill="#FFFF00" stroke="black" stroke-width="0.08"/>
<path d="M25.3698 37.5863L25.5083 37.4472L25.6073 37.5454L25.7082 37.4438L25.6071 37.3434L25.7492 37.2012L25.8499 37.3012L25.9511 37.1993L25.85 37.0988L25.9918 36.9561L26.22 37.1831C26.2558 37.2187 26.2504 37.2706 26.2172 37.304L25.7199 37.8049C25.6865 37.8385 25.6287 37.8428 25.5958 37.8103L25.3697 37.5865L25.3698 37.5863Z" fill="#FFFF00" stroke="black" stroke-width="0.08"/>
<path d="M26.196 37.365L26.9597 38.0609L26.4728 38.5476L25.7723 37.7878L26.196 37.365Z" fill="#FFFF00" stroke="black" stroke-width="0.08"/>
<path d="M25.9435 38.2981L26.3531 38.6752L25.8882 39.1439L25.5063 38.7384L25.9435 38.2981Z" fill="#FFFF00" stroke="black" stroke-width="0.08"/>
<path d="M27.1397 37.0936L27.5494 37.4708L27.0845 37.9394L26.7026 37.5339L27.1397 37.0936Z" fill="#FFFF00" stroke="black" stroke-width="0.08"/>
<path d="M25.1345 38.5408L25.27 38.405L25.369 38.5033L25.468 38.4037L25.3666 38.3031L25.5057 38.164L25.6066 38.2642L25.7057 38.1644L25.6044 38.0637L25.7433 37.9243L25.9715 38.1513C26.0072 38.1867 26.0023 38.238 25.9699 38.2707L25.4833 38.7608C25.4506 38.7936 25.3936 38.7976 25.3605 38.765L25.1344 38.5411L25.1345 38.5408Z" fill="#FFFF00" stroke="black" stroke-width="0.08"/>
<path d="M26.3303 37.3364L26.4658 37.2005L26.5648 37.2989L26.6638 37.1992L26.5624 37.0986L26.7015 36.9595L26.8024 37.0597L26.9015 36.9599L26.8002 36.8593L26.9391 36.7198L27.1673 36.9468C27.203 36.9822 27.1981 37.0335 27.1657 37.0662L26.6791 37.5563C26.6464 37.5892 26.5894 37.5931 26.5563 37.5605L26.3302 37.3367L26.3303 37.3364Z" fill="#FFFF00" stroke="black" stroke-width="0.08"/>
<path d="M26.1695 37.855C26.0953 37.7873 26.1963 37.684 26.2671 37.7567L26.4416 37.9299L26.3439 38.0282L26.1695 37.855Z" fill="black"/>
<path d="M25.8217 38.7115C25.7525 38.6436 25.8458 38.5468 25.9148 38.6177L26.0496 38.7516L25.9565 38.8453L25.8217 38.7115Z" fill="black"/>
<path d="M27.0214 37.5034C26.9522 37.4354 27.0455 37.3387 27.1145 37.4096L27.2493 37.5434L27.1562 37.6372L27.0214 37.5034Z" fill="black"/>
<path d="M31.7446 24.7088C31.7662 23.8254 32.393 23.6163 32.3975 23.6132C32.402 23.6102 33.0745 23.8384 33.0723 24.717L31.7446 24.7088Z" fill="#FFFF00"/>
<path d="M31.2038 23.6305L31.0947 24.6456L31.7572 24.6471C31.7636 23.8072 32.393 23.6675 32.4083 23.6706C32.4225 23.6698 33.0465 23.8563 33.0631 24.6471H33.7273L33.6074 23.6241L31.2039 23.6302L31.2038 23.6305Z" fill="#FFFF00" stroke="black" stroke-width="0.08"/>
<path d="M31.0501 24.6497H33.7615C33.8187 24.6497 33.8654 24.7061 33.8654 24.7751C33.8654 24.844 33.8187 24.9001 33.7615 24.9001H31.0501C30.993 24.9001 30.9463 24.844 30.9463 24.7751C30.9463 24.7061 30.993 24.6497 31.0501 24.6497Z" fill="#FFFF00" stroke="black" stroke-width="0.08"/>
<path d="M32.0356 24.6448C32.0386 24.1148 32.3976 23.9648 32.3994 23.9651C32.3996 23.9651 32.7742 24.1197 32.7772 24.6448H32.0356Z" fill="#FFFF00" stroke="black" stroke-width="0.08"/>
<path d="M31.1079 23.208H33.7071C33.7619 23.208 33.8067 23.259 33.8067 23.3208C33.8067 23.3827 33.7619 23.4335 33.7071 23.4335H31.1079C31.0532 23.4335 31.0083 23.383 31.0083 23.3208C31.0083 23.259 31.0532 23.208 31.1079 23.208Z" fill="#FFFF00" stroke="black" stroke-width="0.08"/>
<path d="M31.1621 23.4352H33.6482C33.7006 23.4352 33.7435 23.4858 33.7435 23.5478C33.7435 23.6099 33.7006 23.6605 33.6482 23.6605H31.1621C31.1098 23.6605 31.0669 23.6099 31.0669 23.5478C31.0669 23.4858 31.1098 23.4352 31.1621 23.4352Z" fill="#FFFF00" stroke="black" stroke-width="0.08"/>
<path d="M31.9656 21.7408L32.1619 21.7411V21.8806H32.3051V21.738L32.5061 21.7387V21.8806H32.6498V21.7381H32.851L32.8507 22.06C32.8507 22.1105 32.81 22.1432 32.7629 22.1432H32.0571C32.0097 22.1432 31.966 22.1053 31.9658 22.059L31.9653 21.7409L31.9656 21.7408Z" fill="#FFFF00" stroke="black" stroke-width="0.08"/>
<path d="M32.7047 22.1713L32.749 23.2035L32.0605 23.2009L32.1061 22.1686L32.7047 22.1713Z" fill="#FFFF00" stroke="black" stroke-width="0.08"/>
<path d="M31.8647 22.6497L31.8857 23.2061L31.2256 23.2064L31.2442 22.6497L31.8647 22.6497Z" fill="#FFFF00" stroke="black" stroke-width="0.08"/>
<path d="M33.5619 22.6497L33.5829 23.2061L32.9229 23.2064L32.9415 22.6497L33.5619 22.6497Z" fill="#FFFF00" stroke="black" stroke-width="0.08"/>
<path d="M31.1223 22.2464L31.3142 22.2469V22.3865H31.4546V22.2437L31.6513 22.2443V22.3865H31.792V22.2437L31.9888 22.244L31.9885 22.5659C31.9885 22.6162 31.9487 22.6489 31.9027 22.6489H31.212C31.1657 22.6489 31.1227 22.6112 31.1226 22.5648L31.1221 22.2466L31.1223 22.2464Z" fill="#FFFF00" stroke="black" stroke-width="0.08"/>
<path d="M32.8196 22.2464L33.0115 22.2469V22.3865H33.1519V22.2437L33.3486 22.2443V22.3865H33.4893V22.2437L33.6861 22.244L33.6858 22.5659C33.6858 22.6162 33.646 22.6489 33.6 22.6489H32.9093C32.863 22.6489 32.82 22.6112 32.8198 22.5648L32.8193 22.2466L32.8196 22.2464Z" fill="#FFFF00" stroke="black" stroke-width="0.08"/>
<path d="M32.338 22.4977C32.3337 22.3973 32.4782 22.3962 32.4765 22.4977V22.7435H32.338L32.338 22.4977Z" fill="black"/>
<path d="M31.4854 22.8545C31.4849 22.7575 31.6193 22.7555 31.6176 22.8545V23.0444H31.4854L31.4854 22.8545Z" fill="black"/>
<path d="M33.188 22.8545C33.1875 22.7575 33.3219 22.7555 33.3202 22.8545V23.0444H33.188L33.188 22.8545Z" fill="black"/>
<path d="M40.3364 24.7088C40.3148 23.8254 39.688 23.6163 39.6835 23.6132C39.679 23.6102 39.0065 23.8384 39.0088 24.717L40.3364 24.7088Z" fill="#FFFF00"/>
<path d="M40.8773 23.6305L40.9863 24.6456L40.3238 24.6471C40.3175 23.8072 39.688 23.6675 39.6728 23.6706C39.6585 23.6698 39.0346 23.8563 39.0179 24.6471H38.3537L38.4737 23.6241L40.8772 23.6302L40.8773 23.6305Z" fill="#FFFF00" stroke="black" stroke-width="0.08"/>
<path d="M41.0309 24.6497H38.3196C38.2624 24.6497 38.2157 24.7061 38.2157 24.7751C38.2157 24.844 38.2624 24.9001 38.3196 24.9001H41.0309C41.0881 24.9001 41.1348 24.844 41.1348 24.7751C41.1348 24.7061 41.0881 24.6497 41.0309 24.6497Z" fill="#FFFF00" stroke="black" stroke-width="0.08"/>
<path d="M40.0449 24.6448C40.042 24.1148 39.683 23.9648 39.6811 23.9651C39.681 23.9651 39.3064 24.1197 39.3034 24.6448H40.0449Z" fill="#FFFF00" stroke="black" stroke-width="0.08"/>
<path d="M40.9731 23.208H38.3739C38.3192 23.208 38.2743 23.259 38.2743 23.3208C38.2743 23.3827 38.3192 23.4335 38.3739 23.4335H40.9731C41.0279 23.4335 41.0728 23.383 41.0728 23.3208C41.0728 23.259 41.0279 23.208 40.9731 23.208Z" fill="#FFFF00" stroke="black" stroke-width="0.08"/>
<path d="M40.9184 23.4352H38.4323C38.38 23.4352 38.3371 23.4858 38.3371 23.5478C38.3371 23.6099 38.38 23.6605 38.4323 23.6605H40.9184C40.9708 23.6605 41.0137 23.6099 41.0137 23.5478C41.0137 23.4858 40.9708 23.4352 40.9184 23.4352Z" fill="#FFFF00" stroke="black" stroke-width="0.08"/>
<path d="M40.1155 21.7408L39.9192 21.7411V21.8806H39.776V21.738L39.5749 21.7387V21.8806H39.4313V21.7381H39.2301L39.2304 22.06C39.2304 22.1105 39.271 22.1432 39.3181 22.1432H40.0239C40.0714 22.1432 40.1151 22.1053 40.1152 22.059L40.1157 21.7409L40.1155 21.7408Z" fill="#FFFF00" stroke="black" stroke-width="0.08"/>
<path d="M39.3764 22.1713L39.3321 23.2035L40.0205 23.2009L39.9749 22.1686L39.3764 22.1713Z" fill="#FFFF00" stroke="black" stroke-width="0.08"/>
<path d="M40.2164 22.6497L40.1954 23.2061L40.8555 23.2064L40.8368 22.6497L40.2164 22.6497Z" fill="#FFFF00" stroke="black" stroke-width="0.08"/>
<path d="M38.5186 22.6497L38.4976 23.2061L39.1577 23.2064L39.1391 22.6497L38.5186 22.6497Z" fill="#FFFF00" stroke="black" stroke-width="0.08"/>
<path d="M40.9587 22.2464L40.7668 22.2469V22.3865H40.6264V22.2437L40.4297 22.2443V22.3865H40.2891V22.2437L40.0922 22.244L40.0925 22.5659C40.0925 22.6162 40.1323 22.6489 40.1783 22.6489H40.869C40.9153 22.6489 40.9584 22.6112 40.9585 22.5648L40.959 22.2466L40.9587 22.2464Z" fill="#FFFF00" stroke="black" stroke-width="0.08"/>
<path d="M39.2615 22.2464L39.0696 22.2469V22.3865H38.9292V22.2437L38.7325 22.2443V22.3865H38.5918V22.2437L38.395 22.244L38.3953 22.5659C38.3953 22.6162 38.4351 22.6489 38.4811 22.6489H39.1718C39.2181 22.6489 39.2611 22.6112 39.2612 22.5648L39.2617 22.2466L39.2615 22.2464Z" fill="#FFFF00" stroke="black" stroke-width="0.08"/>
<path d="M39.7426 22.4977C39.7468 22.3973 39.6023 22.3962 39.604 22.4977V22.7435H39.7426L39.7426 22.4977Z" fill="black"/>
<path d="M40.5957 22.8545C40.5962 22.7575 40.4618 22.7555 40.4635 22.8545V23.0444H40.5956L40.5957 22.8545Z" fill="black"/>
<path d="M38.8931 22.8545C38.8935 22.7575 38.7592 22.7555 38.7609 22.8545V23.0444H38.893L38.8931 22.8545Z" fill="black"/>
<path d="M40.3364 32.12C40.3148 31.2367 39.688 31.0275 39.6835 31.0244C39.679 31.0215 39.0065 31.2497 39.0088 32.1282L40.3364 32.12Z" fill="#FFFF00"/>
<path d="M40.8773 31.0416L40.9863 32.0568L40.3238 32.0582C40.3175 31.2183 39.688 31.0786 39.6728 31.0817C39.6585 31.0809 39.0346 31.2674 39.0179 32.0582H38.3537L38.4737 31.0353L40.8772 31.0413L40.8773 31.0416Z" fill="#FFFF00" stroke="black" stroke-width="0.08"/>
<path d="M41.0309 32.0608H38.3196C38.2624 32.0608 38.2157 32.1172 38.2157 32.1862C38.2157 32.2551 38.2624 32.3113 38.3196 32.3113H41.0309C41.0881 32.3113 41.1348 32.2551 41.1348 32.1862C41.1348 32.1172 41.0881 32.0608 41.0309 32.0608Z" fill="#FFFF00" stroke="black" stroke-width="0.08"/>
<path d="M40.0449 32.056C40.042 31.5259 39.683 31.3759 39.6811 31.3762C39.681 31.3762 39.3064 31.5309 39.3034 32.056H40.0449Z" fill="#FFFF00" stroke="black" stroke-width="0.08"/>
<path d="M40.9731 30.6191H38.3739C38.3192 30.6191 38.2743 30.6701 38.2743 30.7319C38.2743 30.7938 38.3192 30.8446 38.3739 30.8446H40.9731C41.0279 30.8446 41.0728 30.7941 41.0728 30.7319C41.0728 30.6701 41.0279 30.6191 40.9731 30.6191Z" fill="#FFFF00" stroke="black" stroke-width="0.08"/>
<path d="M40.9184 30.8464H38.4323C38.38 30.8464 38.3371 30.8971 38.3371 30.959C38.3371 31.0211 38.38 31.0718 38.4323 31.0718H40.9184C40.9708 31.0718 41.0137 31.0211 41.0137 30.959C41.0137 30.8971 40.9708 30.8464 40.9184 30.8464Z" fill="#FFFF00" stroke="black" stroke-width="0.08"/>
<path d="M40.1155 29.152L39.9192 29.1523V29.2917H39.776V29.1492L39.5749 29.1498V29.2918H39.4313V29.1492H39.2301L39.2304 29.4711C39.2304 29.5216 39.271 29.5544 39.3181 29.5544H40.0239C40.0714 29.5544 40.1151 29.5164 40.1152 29.4701L40.1157 29.1521L40.1155 29.152Z" fill="#FFFF00" stroke="black" stroke-width="0.08"/>
<path d="M39.3764 29.5824L39.3321 30.6146L40.0205 30.6121L39.9749 29.5797L39.3764 29.5824Z" fill="#FFFF00" stroke="black" stroke-width="0.08"/>
<path d="M40.2164 30.0608L40.1954 30.6172L40.8555 30.6175L40.8368 30.0608L40.2164 30.0608Z" fill="#FFFF00" stroke="black" stroke-width="0.08"/>
<path d="M38.5186 30.0608L38.4976 30.6172L39.1577 30.6175L39.1391 30.0608L38.5186 30.0608Z" fill="#FFFF00" stroke="black" stroke-width="0.08"/>
<path d="M40.9587 29.6576L40.7668 29.658V29.7976H40.6264V29.6548L40.4297 29.6554V29.7977H40.2891V29.6549L40.0922 29.6552L40.0925 29.9771C40.0925 30.0273 40.1323 30.06 40.1783 30.06H40.869C40.9153 30.06 40.9584 30.0224 40.9585 29.9759L40.959 29.6577L40.9587 29.6576Z" fill="#FFFF00" stroke="black" stroke-width="0.08"/>
<path d="M39.2615 29.6576L39.0696 29.658V29.7976H38.9292V29.6548L38.7325 29.6554V29.7977H38.5918V29.6549L38.395 29.6552L38.3953 29.9771C38.3953 30.0273 38.4351 30.06 38.4811 30.06H39.1718C39.2181 30.06 39.2611 30.0224 39.2612 29.9759L39.2617 29.6577L39.2615 29.6576Z" fill="#FFFF00" stroke="black" stroke-width="0.08"/>
<path d="M39.7426 29.9088C39.7468 29.8085 39.6023 29.8073 39.604 29.9088V30.1546H39.7426L39.7426 29.9088Z" fill="black"/>
<path d="M40.5957 30.2656C40.5962 30.1686 40.4618 30.1667 40.4635 30.2656V30.4555H40.5956L40.5957 30.2656Z" fill="black"/>
<path d="M38.8931 30.2656C38.8935 30.1686 38.7592 30.1667 38.7609 30.2656V30.4555H38.893L38.8931 30.2656Z" fill="black"/>
<path d="M37.4467 39.8342C38.0583 39.1965 37.765 38.6044 37.7641 38.599C37.763 38.5937 37.1272 38.2773 36.5054 38.8979L37.4467 39.8342Z" fill="#FFFF00"/>
<path d="M38.593 39.4581L37.9495 40.2507L37.4817 39.7817C38.0732 39.1854 37.7288 38.6402 37.7158 38.6316C37.7064 38.6209 37.1344 38.3096 36.5615 38.855L36.0935 38.3837L36.9039 37.748L38.5931 39.4578L38.593 39.4581Z" fill="#FFFF00" stroke="black" stroke-width="0.08"/>
<path d="M37.9776 40.2852L36.0672 38.3612C36.0269 38.3207 35.9539 38.3273 35.905 38.3759C35.8561 38.4244 35.8492 38.4972 35.8894 38.5377L37.7999 40.4617C37.8401 40.5022 37.9129 40.4958 37.9618 40.4473C38.0107 40.3987 38.0179 40.3257 37.9776 40.2852Z" fill="#FFFF00" stroke="black" stroke-width="0.08"/>
<path d="M37.2867 39.5825C37.6607 39.2069 37.5142 38.8465 37.5127 38.8454C37.5126 38.8453 37.1389 38.6884 36.7642 39.0563L37.2867 39.5825Z" fill="#FFFF00" stroke="black" stroke-width="0.08"/>
<path d="M38.9601 39.2286L37.1287 37.3842C37.0901 37.3454 37.0223 37.3494 36.9785 37.393C36.9345 37.4366 36.9301 37.5043 36.9686 37.5431L38.8001 39.3875C38.8386 39.4264 38.9061 39.4226 38.9503 39.3788C38.9941 39.3352 38.9987 39.2675 38.9601 39.2286Z" fill="#FFFF00" stroke="black" stroke-width="0.08"/>
<path d="M38.7605 39.3501L37.0088 37.586C36.9719 37.5489 36.9058 37.5541 36.8618 37.5978C36.8177 37.6415 36.812 37.7077 36.8489 37.7448L38.6006 39.5089C38.6375 39.5461 38.7037 39.5408 38.7477 39.4971C38.7917 39.4534 38.7974 39.3873 38.7605 39.3501Z" fill="#FFFF00" stroke="black" stroke-width="0.08"/>
<path d="M39.3968 37.5863L39.2583 37.4472L39.1593 37.5454L39.0584 37.4438L39.1595 37.3434L39.0174 37.2012L38.9167 37.3012L38.8155 37.1993L38.9166 37.0988L38.7748 36.9561L38.5466 37.1831C38.5108 37.2187 38.5162 37.2706 38.5494 37.304L39.0467 37.8049C39.0801 37.8385 39.1379 37.8428 39.1708 37.8103L39.3969 37.5865L39.3968 37.5863Z" fill="#FFFF00" stroke="black" stroke-width="0.08"/>
<path d="M38.5706 37.365L37.8069 38.0609L38.2938 38.5476L38.9943 37.7878L38.5706 37.365Z" fill="#FFFF00" stroke="black" stroke-width="0.08"/>
<path d="M38.8231 38.2981L38.4135 38.6752L38.8784 39.1439L39.2603 38.7384L38.8231 38.2981Z" fill="#FFFF00" stroke="black" stroke-width="0.08"/>
<path d="M37.6273 37.0936L37.2177 37.4708L37.6826 37.9394L38.0645 37.5339L37.6273 37.0936Z" fill="#FFFF00" stroke="black" stroke-width="0.08"/>
<path d="M39.6326 38.5408L39.4971 38.405L39.398 38.5033L39.2991 38.4037L39.4005 38.3031L39.2614 38.164L39.1605 38.2642L39.0613 38.1644L39.1627 38.0637L39.0238 37.9243L38.7956 38.1513C38.7599 38.1867 38.7647 38.238 38.7972 38.2707L39.2838 38.7608C39.3164 38.7936 39.3735 38.7976 39.4065 38.765L39.6327 38.5411L39.6326 38.5408Z" fill="#FFFF00" stroke="black" stroke-width="0.08"/>
<path d="M38.4363 37.3364L38.3008 37.2005L38.2018 37.2989L38.1028 37.1992L38.2042 37.0986L38.0651 36.9595L37.9642 37.0597L37.8651 36.9599L37.9664 36.8593L37.8275 36.7198L37.5993 36.9468C37.5636 36.9822 37.5685 37.0335 37.6009 37.0662L38.0875 37.5563C38.1202 37.5892 38.1772 37.5931 38.2103 37.5605L38.4364 37.3367L38.4363 37.3364Z" fill="#FFFF00" stroke="black" stroke-width="0.08"/>
<path d="M38.5971 37.855C38.6713 37.7873 38.5703 37.684 38.4995 37.7567L38.325 37.9299L38.4227 38.0282L38.5971 37.855Z" fill="black"/>
<path d="M38.9449 38.7115C39.0141 38.6436 38.9208 38.5468 38.8518 38.6177L38.717 38.7516L38.8101 38.8453L38.9449 38.7115Z" fill="black"/>
<path d="M37.7452 37.5034C37.8144 37.4354 37.7211 37.3387 37.6521 37.4096L37.5173 37.5434L37.6104 37.6372L37.7452 37.5034Z" fill="black"/>
<path d="M31.2218 32.385V32.3858C31.2218 32.7397 31.3576 33.0622 31.5756 33.2961C31.7941 33.5308 32.0949 33.6765 32.424 33.6765C32.7547 33.6765 33.055 33.5318 33.2724 33.2981C33.4897 33.0647 33.6248 32.7425 33.6248 32.3872V30.6643L31.226 30.6624L31.2218 32.385Z" fill="#003399"/>
<path d="M31.7719 31.5554C31.9033 31.5554 32.0097 31.4489 32.0097 31.3176C32.0097 31.1863 31.9033 31.0798 31.7719 31.0798C31.6406 31.0798 31.5342 31.1863 31.5342 31.3176C31.5342 31.4489 31.6406 31.5554 31.7719 31.5554Z" fill="white"/>
<path d="M33.1025 31.5565C33.2338 31.5565 33.3403 31.45 33.3403 31.3187C33.3403 31.1874 33.2338 31.0809 33.1025 31.0809C32.9712 31.0809 32.8647 31.1874 32.8647 31.3187C32.8647 31.45 32.9712 31.5565 33.1025 31.5565Z" fill="white"/>
<path d="M32.436 32.1954C32.5673 32.1954 32.6738 32.0889 32.6738 31.9576C32.6738 31.8263 32.5673 31.7198 32.436 31.7198C32.3047 31.7198 32.1982 31.8263 32.1982 31.9576C32.1982 32.0889 32.3047 32.1954 32.436 32.1954Z" fill="white"/>
<path d="M31.7719 32.8643C31.9033 32.8643 32.0097 32.7579 32.0097 32.6266C32.0097 32.4952 31.9033 32.3888 31.7719 32.3888C31.6406 32.3888 31.5342 32.4952 31.5342 32.6266C31.5342 32.7579 31.6406 32.8643 31.7719 32.8643Z" fill="white"/>
<path d="M33.101 32.8626C33.2324 32.8626 33.3388 32.7562 33.3388 32.6248C33.3388 32.4935 33.2324 32.3871 33.101 32.3871C32.9697 32.3871 32.8633 32.4935 32.8633 32.6248C32.8633 32.7562 32.9697 32.8626 33.101 32.8626Z" fill="white"/>
<path d="M31.2218 28.2224V28.2232C31.2218 28.5771 31.3576 28.8996 31.5756 29.1335C31.7941 29.3682 32.0949 29.5139 32.424 29.5139C32.7547 29.5139 33.055 29.3692 33.2724 29.1355C33.4897 28.9021 33.6248 28.5799 33.6248 28.2246V26.5017L31.226 26.4998L31.2218 28.2224Z" fill="#003399"/>
<path d="M31.7719 27.3928C31.9033 27.3928 32.0097 27.2863 32.0097 27.155C32.0097 27.0237 31.9033 26.9172 31.7719 26.9172C31.6406 26.9172 31.5342 27.0237 31.5342 27.155C31.5342 27.2863 31.6406 27.3928 31.7719 27.3928Z" fill="white"/>
<path d="M33.1025 27.394C33.2338 27.394 33.3403 27.2875 33.3403 27.1562C33.3403 27.0249 33.2338 26.9185 33.1025 26.9185C32.9712 26.9185 32.8647 27.0249 32.8647 27.1562C32.8647 27.2875 32.9712 27.394 33.1025 27.394Z" fill="white"/>
<path d="M32.436 28.0328C32.5673 28.0328 32.6738 27.9263 32.6738 27.795C32.6738 27.6637 32.5673 27.5573 32.436 27.5573C32.3047 27.5573 32.1982 27.6637 32.1982 27.795C32.1982 27.9263 32.3047 28.0328 32.436 28.0328Z" fill="white"/>
<path d="M31.7719 28.7017C31.9033 28.7017 32.0097 28.5953 32.0097 28.464C32.0097 28.3326 31.9033 28.2262 31.7719 28.2262C31.6406 28.2262 31.5342 28.3326 31.5342 28.464C31.5342 28.5953 31.6406 28.7017 31.7719 28.7017Z" fill="white"/>
<path d="M33.101 28.7C33.2324 28.7 33.3388 28.5936 33.3388 28.4622C33.3388 28.3309 33.2324 28.2245 33.101 28.2245C32.9697 28.2245 32.8633 28.3309 32.8633 28.4622C32.8633 28.5936 32.9697 28.7 33.101 28.7Z" fill="white"/>
<path d="M27.8941 32.385V32.3858C27.8941 32.7397 28.03 33.0622 28.248 33.2961C28.4664 33.5308 28.7673 33.6765 29.0963 33.6765C29.4271 33.6765 29.7274 33.5318 29.9448 33.2981C30.1621 33.0647 30.2971 32.7425 30.2971 32.3872V30.6643L27.8984 30.6624L27.8941 32.385Z" fill="#003399"/>
<path d="M28.4438 31.5554C28.5751 31.5554 28.6816 31.4489 28.6816 31.3176C28.6816 31.1863 28.5751 31.0798 28.4438 31.0798C28.3125 31.0798 28.2061 31.1863 28.2061 31.3176C28.2061 31.4489 28.3125 31.5554 28.4438 31.5554Z" fill="white"/>
<path d="M29.7749 31.5565C29.9062 31.5565 30.0126 31.45 30.0126 31.3187C30.0126 31.1874 29.9062 31.0809 29.7749 31.0809C29.6436 31.0809 29.5371 31.1874 29.5371 31.3187C29.5371 31.45 29.6436 31.5565 29.7749 31.5565Z" fill="white"/>
<path d="M29.1084 32.1954C29.2397 32.1954 29.3461 32.0889 29.3461 31.9576C29.3461 31.8263 29.2397 31.7198 29.1084 31.7198C28.9771 31.7198 28.8706 31.8263 28.8706 31.9576C28.8706 32.0889 28.9771 32.1954 29.1084 32.1954Z" fill="white"/>
<path d="M28.4438 32.8643C28.5751 32.8643 28.6816 32.7579 28.6816 32.6266C28.6816 32.4952 28.5751 32.3888 28.4438 32.3888C28.3125 32.3888 28.2061 32.4952 28.2061 32.6266C28.2061 32.7579 28.3125 32.8643 28.4438 32.8643Z" fill="white"/>
<path d="M29.7734 32.8626C29.9047 32.8626 30.0112 32.7562 30.0112 32.6248C30.0112 32.4935 29.9047 32.3871 29.7734 32.3871C29.6421 32.3871 29.5356 32.4935 29.5356 32.6248C29.5356 32.7562 29.6421 32.8626 29.7734 32.8626Z" fill="white"/>
<path d="M34.5411 32.385V32.3858C34.5411 32.7397 34.677 33.0622 34.895 33.2961C35.1134 33.5308 35.4142 33.6765 35.7433 33.6765C36.0741 33.6765 36.3743 33.5318 36.5918 33.2981C36.8091 33.0647 36.9441 32.7425 36.9441 32.3872V30.6643L34.5454 30.6624L34.5411 32.385Z" fill="#003399"/>
<path d="M35.0913 31.5554C35.2226 31.5554 35.329 31.4489 35.329 31.3176C35.329 31.1863 35.2226 31.0798 35.0913 31.0798C34.96 31.0798 34.8535 31.1863 34.8535 31.3176C34.8535 31.4489 34.96 31.5554 35.0913 31.5554Z" fill="white"/>
<path d="M36.4218 31.5565C36.5532 31.5565 36.6596 31.45 36.6596 31.3187C36.6596 31.1874 36.5532 31.0809 36.4218 31.0809C36.2905 31.0809 36.1841 31.1874 36.1841 31.3187C36.1841 31.45 36.2905 31.5565 36.4218 31.5565Z" fill="white"/>
<path d="M35.7553 32.1954C35.8867 32.1954 35.9931 32.0889 35.9931 31.9576C35.9931 31.8263 35.8867 31.7198 35.7553 31.7198C35.624 31.7198 35.5176 31.8263 35.5176 31.9576C35.5176 32.0889 35.624 32.1954 35.7553 32.1954Z" fill="white"/>
<path d="M35.0913 32.8643C35.2226 32.8643 35.329 32.7579 35.329 32.6266C35.329 32.4952 35.2226 32.3888 35.0913 32.3888C34.96 32.3888 34.8535 32.4952 34.8535 32.6266C34.8535 32.7579 34.96 32.8643 35.0913 32.8643Z" fill="white"/>
<path d="M36.4204 32.8626C36.5517 32.8626 36.6581 32.7562 36.6581 32.6248C36.6581 32.4935 36.5517 32.3871 36.4204 32.3871C36.2891 32.3871 36.1826 32.4935 36.1826 32.6248C36.1826 32.7562 36.2891 32.8626 36.4204 32.8626Z" fill="white"/>
<path d="M31.2218 36.5104V36.5112C31.2218 36.8651 31.3576 37.1875 31.5756 37.4215C31.7941 37.6562 32.0949 37.8019 32.424 37.8019C32.7547 37.8019 33.055 37.6571 33.2724 37.4234C33.4897 37.1901 33.6248 36.8679 33.6248 36.5126V34.7897L31.226 34.7877L31.2218 36.5104Z" fill="#003399"/>
<path d="M31.7719 35.6808C31.9033 35.6808 32.0097 35.5744 32.0097 35.4431C32.0097 35.3118 31.9033 35.2053 31.7719 35.2053C31.6406 35.2053 31.5342 35.3118 31.5342 35.4431C31.5342 35.5744 31.6406 35.6808 31.7719 35.6808Z" fill="white"/>
<path d="M33.1025 35.6819C33.2338 35.6819 33.3403 35.5755 33.3403 35.4442C33.3403 35.3129 33.2338 35.2064 33.1025 35.2064C32.9712 35.2064 32.8647 35.3129 32.8647 35.4442C32.8647 35.5755 32.9712 35.6819 33.1025 35.6819Z" fill="white"/>
<path d="M32.436 36.3209C32.5673 36.3209 32.6738 36.2144 32.6738 36.0831C32.6738 35.9518 32.5673 35.8453 32.436 35.8453C32.3047 35.8453 32.1982 35.9518 32.1982 36.0831C32.1982 36.2144 32.3047 36.3209 32.436 36.3209Z" fill="white"/>
<path d="M31.7719 36.9898C31.9033 36.9898 32.0097 36.8834 32.0097 36.752C32.0097 36.6207 31.9033 36.5143 31.7719 36.5143C31.6406 36.5143 31.5342 36.6207 31.5342 36.752C31.5342 36.8834 31.6406 36.9898 31.7719 36.9898Z" fill="white"/>
<path d="M33.101 36.988C33.2324 36.988 33.3388 36.8815 33.3388 36.7502C33.3388 36.6189 33.2324 36.5125 33.101 36.5125C32.9697 36.5125 32.8633 36.6189 32.8633 36.7502C32.8633 36.8815 32.9697 36.988 33.101 36.988Z" fill="white"/>
</g>
</svg>
