<svg width="64" height="64" viewBox="0 0 64 64" fill="none" xmlns="http://www.w3.org/2000/svg">
<mask id="mask0_406_991" style="mask-type:alpha" maskUnits="userSpaceOnUse" x="0" y="0" width="64" height="64">
<circle cx="32" cy="32" r="32" fill="#D9D9D9"/>
</mask>
<g mask="url(#mask0_406_991)">
<path d="M77 0H-19V64H77V0Z" fill="#EE1C25"/>
<path d="M77 0H-19V42.6667H77V0Z" fill="#0B4EA2"/>
<path d="M77 0H-19V21.3333H77V0Z" fill="white"/>
</g>
<path d="M44.9311 15.04H44.0668H31.7511H19.4358H18.5715L18.4812 15.8996C18.4615 16.0865 18 20.5898 18 30.4799C18 35.1266 19.5708 39.2261 22.6688 42.6644C24.8394 45.0735 27.6739 47.1016 31.3346 48.8648L31.7511 49.0655L32.1678 48.8648C35.8286 47.1016 38.6634 45.0735 40.834 42.6644C43.9321 39.2261 45.5029 35.1266 45.5029 30.4799C45.5029 20.59 45.0413 16.0865 45.0217 15.8996L44.9311 15.04Z" fill="white"/>
<path d="M31.7511 48C26.4882 45.465 18.96 40.4333 18.96 30.4799C18.96 20.5265 19.4358 16 19.4358 16H31.7511H44.0667C44.0667 16 44.5428 20.5266 44.5428 30.4799C44.5428 40.4333 37.0145 45.465 31.7511 48Z" fill="#EE1C25"/>
<path d="M32.8785 27.8703C34.3035 27.8933 37.0838 27.9491 39.5595 27.1207C39.5595 27.1207 39.4941 28.0067 39.4941 29.0386C39.4941 30.0708 39.5595 30.9567 39.5595 30.9567C37.2887 30.1967 34.4843 30.1809 32.8785 30.2013V35.6988H30.6274V30.2013C29.0215 30.1809 26.2172 30.1967 23.9463 30.9567C23.9463 30.9567 24.0117 30.0708 24.0117 29.0386C24.0117 28.0066 23.9463 27.1207 23.9463 27.1207C26.422 27.9491 29.2023 27.8933 30.6274 27.8703V24.4177C29.3285 24.4062 27.4569 24.4681 25.3406 25.1764C25.3406 25.1764 25.406 24.2905 25.406 23.2583C25.406 22.2262 25.3406 21.3404 25.3406 21.3404C27.4537 22.0473 29.3231 22.1104 30.6216 22.0992C30.5548 19.9127 29.9179 17.1571 29.9179 17.1571C29.9179 17.1571 31.2287 17.2594 31.7528 17.2594C32.2774 17.2594 33.5878 17.1571 33.5878 17.1571C33.5878 17.1571 32.9511 19.9128 32.8842 22.099C34.1828 22.1103 36.0521 22.0472 38.1652 21.3401C38.1652 21.3401 38.0998 22.226 38.0998 23.2581C38.0998 24.2903 38.1652 25.1762 38.1652 25.1762C36.049 24.468 34.1773 24.406 32.8785 24.4175V27.8701V27.8703Z" fill="white"/>
<path d="M31.7495 35.1033C29.0986 35.1033 27.6788 38.78 27.6788 38.78C27.6788 38.78 26.8911 37.0367 24.7283 37.0367C23.2649 37.0367 22.1865 38.3381 21.501 39.5433C24.1633 43.7785 28.4108 46.3921 31.7494 48C35.0886 46.392 39.339 43.7791 42.0013 39.5433C41.3158 38.3381 40.2374 37.0367 38.774 37.0367C36.6112 37.0367 35.8201 38.78 35.8201 38.78C35.8201 38.78 34.4006 35.1033 31.7495 35.1033Z" fill="#0B4EA2"/>
</svg>
