<svg width="64" height="64" viewBox="0 0 64 64" fill="none" xmlns="http://www.w3.org/2000/svg">
<circle cx="32" cy="32" r="32" fill="#E30A17"/>
<path fill-rule="evenodd" clip-rule="evenodd" d="M27 48C32.6934 48 37.6923 45.0263 40.5281 40.5473C38.1847 43.1578 34.7841 44.7999 31 44.7999C23.9307 44.7999 18.2 39.0692 18.2 32C18.2 24.9307 23.9307 19.2 31 19.2C34.784 19.2 38.1845 20.842 40.5279 23.4524C37.692 18.9736 32.6933 16 27 16C18.1634 16 11 23.1634 11 32C11 40.8366 18.1634 48 27 48ZM45.1945 33.7962L39.6667 32.0001L45.1945 30.204V24.3916L48.6109 29.0939L54.1388 27.2978L50.7224 32.0001L54.1388 36.7024L48.6109 34.9063L45.1945 39.6086V33.7962Z" fill="white"/>
</svg>
