<svg width="32" height="32" viewBox="0 0 32 32" fill="none" xmlns="http://www.w3.org/2000/svg">
<circle cx="16" cy="16" r="16" fill="#B22234"/>
<path fill-rule="evenodd" clip-rule="evenodd" d="M31.5473 12.205C31.7573 13.0686 31.8973 13.9596 31.9608 14.8717H0.0391541C0.102688 13.9596 0.242665 13.0686 0.452719 12.205H31.5473ZM29.4185 7.28196C29.964 8.11987 30.4332 9.01205 30.8161 9.94863H1.18389C1.56681 9.01205 2.03595 8.11987 2.58145 7.28196H29.4185ZM24.3663 2.35889C25.5741 3.10121 26.6757 3.99945 27.6432 5.02555H4.35675C5.32427 3.99945 6.42592 3.10121 7.63369 2.35889H24.3663ZM31.5473 19.7948C31.7573 18.9312 31.8973 18.0402 31.9608 17.1281H0.0391554C0.102691 18.0402 0.242668 18.9312 0.452724 19.7948H31.5473ZM30.8161 22.0512H1.18389C1.56681 22.9878 2.03596 23.88 2.58146 24.7179H29.4185C29.964 23.88 30.4332 22.9878 30.8161 22.0512ZM27.6432 26.9743H4.35677C5.32429 28.0004 6.42595 28.8986 7.63372 29.6409H24.3663C25.574 28.8986 26.6757 28.0004 27.6432 26.9743Z" fill="white"/>
<path fill-rule="evenodd" clip-rule="evenodd" d="M16 0C7.16344 0 0 7.16344 0 16C0 16.4141 0.0157329 16.8246 0.0466335 17.2308H16V0Z" fill="#3C3B6E"/>
<path fill-rule="evenodd" clip-rule="evenodd" d="M0.0815125 14.375L0.36541 14.5813L0.14435 13.9009L0.723093 13.4805H0.197265C0.17609 13.6143 0.156575 13.7487 0.138742 13.8837C0.137703 13.8915 0.13667 13.8994 0.135642 13.9073C0.115363 14.0625 0.0973086 14.2184 0.0815125 14.375Z" fill="white"/>
<path fill-rule="evenodd" clip-rule="evenodd" d="M1.50565 9.21521L1.81331 8.99168L2.39205 9.41216L2.17099 8.73181L2.74973 8.31133H2.03437L2.00873 8.23242C1.99412 8.25868 1.97958 8.28498 1.96512 8.31133C1.86152 8.50003 1.76161 8.69105 1.6655 8.88429C1.61099 8.99389 1.5577 9.1042 1.50565 9.21521Z" fill="white"/>
<path d="M1.81335 11.0771L2.39209 12.8583L0.876923 11.7575H2.74977L1.23461 12.8583L1.81335 11.0771Z" fill="white"/>
<path d="M1.81335 14.5229L2.39209 16.3041L0.876923 15.2033H2.74977L1.23461 16.3041L1.81335 14.5229Z" fill="white"/>
<path fill-rule="evenodd" clip-rule="evenodd" d="M3.00589 6.6624L3.48232 7.00855L3.26126 7.6889L3.84 7.26842L4.41875 7.6889L4.19769 7.00855L4.77643 6.58807H4.06106L3.84 5.90771L3.61894 6.58807H3.05972C3.04171 6.61279 3.02377 6.63757 3.00589 6.6624Z" fill="white"/>
<path d="M3.83999 9.354L4.41873 11.1352L2.90356 10.0344H4.77641L3.26125 11.1352L3.83999 9.354Z" fill="white"/>
<path d="M3.83999 12.7998L4.41873 14.581L2.90356 13.4802H4.77641L3.26125 14.581L3.83999 12.7998Z" fill="white"/>
<path d="M5.86666 4.18457L6.4454 5.96576L4.93024 4.86492H6.80309L5.28792 5.96576L5.86666 4.18457Z" fill="white"/>
<path d="M5.86666 7.63086L6.4454 9.41205L4.93024 8.31121H6.80309L5.28792 9.41205L5.86666 7.63086Z" fill="white"/>
<path d="M5.86666 11.0771L6.4454 12.8583L4.93024 11.7575H6.80309L5.28792 12.8583L5.86666 11.0771Z" fill="white"/>
<path d="M5.86666 14.5229L6.4454 16.3041L4.93024 15.2033H6.80309L5.28792 16.3041L5.86666 14.5229Z" fill="white"/>
<path d="M7.89333 2.46143L8.47208 4.24261L6.95691 3.14178H8.82976L7.31459 4.24261L7.89333 2.46143Z" fill="white"/>
<path d="M7.89333 5.90771L8.47208 7.6889L6.95691 6.58807H8.82976L7.31459 7.6889L7.89333 5.90771Z" fill="white"/>
<path d="M7.89333 9.354L8.47208 11.1352L6.95691 10.0344H8.82976L7.31459 11.1352L7.89333 9.354Z" fill="white"/>
<path d="M7.89333 12.7998L8.47208 14.581L6.95691 13.4802H8.82976L7.31459 14.581L7.89333 12.7998Z" fill="white"/>
<path fill-rule="evenodd" clip-rule="evenodd" d="M9.14716 1.53786L9.5623 1.83948L9.34124 2.51983L9.91998 2.09935L10.4987 2.51983L10.2777 1.83948L10.8564 1.419H10.141L10.0512 1.14258C9.94966 1.18328 9.84861 1.225 9.74808 1.26771L9.69892 1.419H9.4034C9.31758 1.45789 9.23216 1.49751 9.14716 1.53786Z" fill="white"/>
<path d="M9.92001 4.18457L10.4987 5.96576L8.98358 4.86492H10.8564L9.34126 5.96576L9.92001 4.18457Z" fill="white"/>
<path d="M9.92001 7.63086L10.4987 9.41205L8.98358 8.31121H10.8564L9.34126 9.41205L9.92001 7.63086Z" fill="white"/>
<path d="M9.92001 11.0771L10.4987 12.8583L8.98358 11.7575H10.8564L9.34126 12.8583L9.92001 11.0771Z" fill="white"/>
<path d="M9.92001 14.5229L10.4987 16.3041L8.98358 15.2033H10.8564L9.34126 16.3041L9.92001 14.5229Z" fill="white"/>
<path d="M11.9467 2.46143L12.5254 4.24261L11.0103 3.14178H12.8831L11.3679 4.24261L11.9467 2.46143Z" fill="white"/>
<path d="M11.9467 5.90771L12.5254 7.6889L11.0103 6.58807H12.8831L11.3679 7.6889L11.9467 5.90771Z" fill="white"/>
<path d="M11.9467 9.354L12.5254 11.1352L11.0103 10.0344H12.8831L11.3679 11.1352L11.9467 9.354Z" fill="white"/>
<path d="M11.9467 12.7998L12.5254 14.581L11.0103 13.4802H12.8831L11.3679 14.581L11.9467 12.7998Z" fill="white"/>
<path d="M13.9733 0.738281L14.5521 2.51947L13.0369 1.41863H14.9097L13.3946 2.51947L13.9733 0.738281Z" fill="white"/>
<path d="M13.9733 4.18457L14.5521 5.96576L13.0369 4.86492H14.9097L13.3946 5.96576L13.9733 4.18457Z" fill="white"/>
<path d="M13.9733 7.63086L14.5521 9.41205L13.0369 8.31121H14.9097L13.3946 9.41205L13.9733 7.63086Z" fill="white"/>
<path d="M13.9733 11.0771L14.5521 12.8583L13.0369 11.7575H14.9097L13.3946 12.8583L13.9733 11.0771Z" fill="white"/>
<path d="M13.9733 14.5229L14.5521 16.3041L13.0369 15.2033H14.9097L13.3946 16.3041L13.9733 14.5229Z" fill="white"/>
</svg>
