<svg width="64" height="64" viewBox="0 0 64 64" fill="none" xmlns="http://www.w3.org/2000/svg">
<circle cx="32" cy="32" r="32" fill="#DE2910"/>
<path fill-rule="evenodd" clip-rule="evenodd" d="M33.2524 3.45517L33.0483 5.77113L35.1878 6.68091L32.9221 7.20247L32.718 9.51843L31.5219 7.52482L29.2562 8.04638L30.7826 6.29269L29.5864 4.29908L31.726 5.20885L33.2524 3.45517ZM15.9998 6.39999L18.1551 13.0334H25.1299L19.4872 17.1331L21.6425 23.7666L15.9998 19.6669L10.357 23.7666L12.5124 17.1331L6.86963 13.0334H13.8444L15.9998 6.39999ZM39.6099 12.6271L40.6967 10.5719L38.6094 11.5958L36.9906 9.92705L37.3194 12.2286L35.232 13.2525L37.5226 13.6511L37.8514 15.9526L38.9382 13.8974L41.2287 14.2959L39.6099 12.6271ZM41.4059 21.3027L39.5752 22.7358L40.3725 24.9198L38.4438 23.6215L36.6131 25.0546L37.2518 22.8191L35.3231 21.5209L37.6465 21.4375L38.2852 19.2021L39.0825 21.386L41.4059 21.3027ZM33.021 28.1282L33.1289 25.8058L31.6765 27.6213L29.5011 26.801L30.7789 28.7433L29.3265 30.5588L31.5687 29.9437L32.8465 31.886L32.9543 29.5636L35.1965 28.9485L33.021 28.1282Z" fill="#FFDE00"/>
</svg>
